<svg id="Group_4" data-name="Group 4" xmlns="http://www.w3.org/2000/svg" width="76.007" height="75.984" viewBox="0 0 76.007 75.984">
  <path id="Path_653" data-name="Path 653" d="M492.236,74.081l-19.055-11.6,16.7-14.787-22.05,3.359,3.282-22.063L456.383,45.74,444.72,26.726l-.518,22.3-21.158-7.07,13.936,17.417-20.752,8.186L438.1,71.945,427.469,91.551l19.572-10.7L451.5,102.71l8.119-20.778,17.46,13.878-7.137-21.133ZM467.442,82.7c-2.64,1.852-10.1-8.027-10.1-8.027s-1.482,12.294-4.7,12.016-2.575-12.639-2.575-12.639-9.033,8.464-11.318,6.187S444.9,68.9,444.9,68.9s-12.358.676-12.645-2.534,12-4.733,12-4.733-9.905-7.427-8.06-10.072,12.234,4.089,12.234,4.089-2.813-12.055.3-12.9,6.745,10.994,6.745,10.994,5.593-11.041,8.517-9.684-1.9,12.758-1.9,12.758,11.383-4.865,12.75-1.943-9.657,8.552-9.657,8.552,11.848,3.591,11.019,6.706-12.893.345-12.893.345S470.079,80.843,467.442,82.7Z" transform="translate(-416.229 -26.726)" fill="#1976d2"/>
</svg>
