<svg xmlns="http://www.w3.org/2000/svg" width="2221" height="1514.019" viewBox="0 0 2221 1514.019">
  <g id="Group_3" data-name="Group 3" transform="translate(91.5 80.041)">
    <path id="Path_9" data-name="Path 9" d="M1624.22,1171.581h.035c15.03,0,29.966-.675,44.392-2.007a435.424,435.424,0,0,0,43.8-6.279,215.5,215.5,0,0,0,26.8-7.168,270.841,270.841,0,0,0,26.89-10.726c8.757-4.028,17.783-8.695,26.827-13.872,8.7-4.982,17.659-10.571,26.619-16.612a586.918,586.918,0,0,0,52.013-39.806c16.117-13.734,32.737-29.162,49.4-45.858V493.671l-.5.244a80.7,80.7,0,0,1-5.064,12.578,156.7,156.7,0,0,1-7.895,14.293,206.427,206.427,0,0,1-12.859,18.356A289.149,289.149,0,0,1,1849.9,584.23a395.851,395.851,0,0,1-34.006,24.823,494.964,494.964,0,0,1-43.141,25.07,235.348,235.348,0,0,1-34.327,14.285,315.588,315.588,0,0,1-38.817,9.987c-26.7,5.163-56.446,7.781-88.414,7.781a705.558,705.558,0,0,1-99.173-7.432,895.244,895.244,0,0,1-103.764-21.34,954.016,954.016,0,0,1-102.869-33.811,858.658,858.658,0,0,1-96.485-44.849c-23.016-12.555-46.513-26.144-71.836-41.547-22.379-13.613-43.274-26.853-63.482-39.657l0,0-.008-.005-.037-.024-.024-.015c-25.7-16.281-49.969-31.66-74.216-45.855-27.2-15.922-50.629-28.17-73.747-38.547A528.56,528.56,0,0,0,845.071,364.3c-14.594-3.91-29.747-7.268-45.037-9.984-15.878-2.819-32.514-5.054-49.445-6.641-5.065-.475-10.386-.716-15.816-.716a228.327,228.327,0,0,0-33.964,2.728A337.355,337.355,0,0,0,664.16,357.5c-12.32,3.309-25.4,7.456-38.868,12.325-12.943,4.678-26.609,10.155-40.62,16.276-26.257,11.475-54.729,25.656-84.624,42.151-27.076,14.939-56.018,32.16-86.023,51.187-26.6,16.865-54.752,35.608-83.682,55.707-24.819,17.245-50.928,35.99-77.6,55.713-48.866,36.132-91.12,69.206-121.973,93.355l-.005,0-.035.027-.172.135-.048.038c-17.4,13.617-31.137,24.372-40.255,31.118C69.818,730.655,39.453,738.943,0,740.166v106.5c8.481-4.963,17.1-9.9,25.612-14.665C94,793.7,162.244,762.3,228.458,738.667c19.135-6.831,38.357-13.095,57.132-18.618,19.757-5.813,39.56-10.964,58.857-15.309,20.237-4.558,40.477-8.357,60.16-11.29,20.571-3.066,41.109-5.274,61.042-6.56,11.938-.769,24.093-1.159,36.129-1.159,15.828,0,31.979.673,48,2,15.548,1.289,31.409,3.23,47.143,5.768,15.249,2.46,30.795,5.547,46.2,9.175,14.89,3.5,30.092,7.618,45.185,12.224,14.551,4.442,29.384,9.461,44.087,14.916,14.145,5.247,28.581,11.05,42.908,17.248,13.721,5.936,27.734,12.4,41.649,19.222,13.268,6.5,26.831,13.513,40.312,20.838,46.874,25.472,94.721,55.68,146.275,92.352,44.405,31.586,83.756,62.374,118.475,89.537l.008.006.012.01c28.391,22.213,52.91,41.4,73.3,55.569,13.231,9.2,27.294,18.318,41.8,27.107,15.069,9.133,30.794,18.018,46.74,26.41a907.716,907.716,0,0,0,105.17,47.13,783.689,783.689,0,0,0,115.536,33.554c20.144,4.137,40.229,7.313,59.7,9.438A555.257,555.257,0,0,0,1624.22,1171.581Z" transform="translate(58.5 -277)" fill="#00ffae" opacity="0.18"/>
    <g id="Group_2" data-name="Group 2" transform="translate(0)">
      <path id="Path_11" data-name="Path 11" d="M535.313,536.286l-.012-.006v.012Z" transform="translate(-397.352 21.592)"/>
      <path id="Path_12" data-name="Path 12" d="M528.216,522.943l-.613.351.613.356Z" transform="translate(-367.067 -5.242)"/>
      <path id="Path_13" data-name="Path 13" d="M536.028,510.193l-.929-.532v1.069Z" transform="translate(-397.46 -31.963)"/>
      <path id="Path_14" data-name="Path 14" d="M529.078,496.314l-1.582.912,1.582.911Z" transform="translate(-367.609 -58.817)"/>
      <path id="Path_15" data-name="Path 15" d="M550.841,509.78l-.3.175.3.181Z" transform="translate(-458.769 -31.725)"/>
      <path id="Path_16" data-name="Path 16" d="M536.533,484l-1.577-.911v1.822Z" transform="translate(-397.532 -85.417)"/>
      <path id="Path_17" data-name="Path 17" d="M529.665,469.744l-2.243,1.3,2.243,1.3Z" transform="translate(-367.973 -112.274)"/>
      <path id="Path_18" data-name="Path 18" d="M558.583,496.8l-.485-.281v.561Z" transform="translate(-489.284 -58.395)"/>
      <path id="Path_19" data-name="Path 19" d="M551.4,483.217l-.929.538.929.537Z" transform="translate(-459.122 -85.167)"/>
      <path id="Path_20" data-name="Path 20" d="M536.786,457.691l-1.9-1.1v2.2Z" transform="translate(-397.564 -138.746)"/>
      <path id="Path_21" data-name="Path 21" d="M529.868,443.259l-2.471,1.425,2.471,1.425Z" transform="translate(-368.1 -165.561)"/>
      <path id="Path_22" data-name="Path 22" d="M573.481,496.615l-.012.006.012.011Z" transform="translate(-550.481 -58.212)"/>
      <path id="Path_23" data-name="Path 23" d="M558.682,470.409l-.613-.351v.7Z" transform="translate(-489.296 -111.643)"/>
      <path id="Path_24" data-name="Path 24" d="M551.4,456.775l-.929.538.929.537Z" transform="translate(-459.122 -138.368)"/>
      <path id="Path_25" data-name="Path 25" d="M536.786,431.252l-1.9-1.11v2.208Z" transform="translate(-397.564 -191.95)"/>
      <path id="Path_26" data-name="Path 26" d="M529.665,416.859l-2.243,1.3,2.243,1.285Z" transform="translate(-367.973 -218.675)"/>
      <path id="Path_27" data-name="Path 27" d="M581.113,483.4l-.011-.006v.017Z" transform="translate(-581.102 -84.812)"/>
      <path id="Path_28" data-name="Path 28" d="M573.481,470.172l-.012.006.012.006Z" transform="translate(-550.481 -111.412)"/>
      <path id="Path_29" data-name="Path 29" d="M558.443,443.849l-.3-.175v.35Z" transform="translate(-489.266 -164.726)"/>
      <path id="Path_30" data-name="Path 30" d="M551.116,430.392l-.613.356.613.351Z" transform="translate(-458.939 -191.447)"/>
      <path id="Path_31" data-name="Path 31" d="M536.277,404.546l-1.25-.718v1.443Z" transform="translate(-397.492 -244.893)"/>
      <path id="Path_32" data-name="Path 32" d="M528.782,390.607l-1.25.718,1.25.718Z" transform="translate(-367.423 -271.493)"/>
      <path id="Path_33" data-name="Path 33" d="M550.759,404.026l-.21.123.21.123Z" transform="translate(-458.722 -244.495)"/>
      <path id="Path_34" data-name="Path 34" d="M535.313,377.628l-.012-.006v.012Z" transform="translate(-397.352 -297.617)"/>
      <path id="Path_35" data-name="Path 35" d="M361.275,655.239l-.2.111.2.117Z" transform="translate(301.437 260.927)"/>
      <path id="Path_36" data-name="Path 36" d="M346.646,655.674l-1.045-.6v1.2Z" transform="translate(362.681 260.604)"/>
      <path id="Path_37" data-name="Path 37" d="M370.022,642.69l-1.658-.952v1.91Z" transform="translate(270.74 233.765)"/>
      <path id="Path_38" data-name="Path 38" d="M341.761,641.286l-4.006,2.313,4.006,2.319Z" transform="translate(391.196 232.857)"/>
      <path id="Path_39" data-name="Path 39" d="M323.276,668.668l-.444-.257v.515Z" transform="translate(454.625 287.43)"/>
      <path id="Path_40" data-name="Path 40" d="M365.337,627.919l-4.766,2.751,4.766,2.75Z" transform="translate(298.9 205.964)"/>
      <path id="Path_41" data-name="Path 41" d="M350.7,631.244l-6.255-3.609v7.219Z" transform="translate(362.1 205.39)"/>
      <path id="Path_42" data-name="Path 42" d="M327.046,644.095l-5.286-3.055v6.115Z" transform="translate(454.085 232.361)"/>
      <path id="Path_43" data-name="Path 43" d="M318.382,654.612l-3.469,2,3.469,2Z" transform="translate(483.372 259.667)"/>
      <path id="Path_44" data-name="Path 44" d="M384.446,641.957l-.5.292.5.292Z" transform="translate(209.394 234.206)"/>
      <path id="Path_45" data-name="Path 45" d="M388.326,614.677l-4.866,2.815,4.866,2.809Z" transform="translate(206.968 179.321)"/>
      <path id="Path_46" data-name="Path 46" d="M374.235,618.335l-7.067-4.077v8.154Z" transform="translate(270.132 178.478)"/>
      <path id="Path_47" data-name="Path 47" d="M347.832,613.533,337,619.794l10.834,6.255Z" transform="translate(387.403 177.019)"/>
      <path id="Path_48" data-name="Path 48" d="M332.854,620.528l-12.745-7.359v14.718Z" transform="translate(453.247 176.285)"/>
      <path id="Path_49" data-name="Path 49" d="M323.914,626.975l-9.69,5.6,9.69,5.595Z" transform="translate(479.913 204.063)"/>
      <path id="Path_50" data-name="Path 50" d="M304.532,657.507l-5.782-3.341v6.682Z" transform="translate(545.903 258.77)"/>
      <path id="Path_51" data-name="Path 51" d="M296.215,667.674l-4.293,2.477,4.293,2.482Z" transform="translate(574.785 285.947)"/>
      <path id="Path_52" data-name="Path 52" d="M300.548,681.978l-.666-.386v.771Z" transform="translate(546.477 313.948)"/>
      <path id="Path_53" data-name="Path 53" d="M392.768,629.4l-1.46-.841v1.682Z" transform="translate(178.889 207.239)"/>
      <path id="Path_54" data-name="Path 54" d="M396.5,604.81l-6.256-3.621v7.237Z" transform="translate(178.349 152.182)"/>
      <path id="Path_55" data-name="Path 55" d="M371.559,600.133l-11.762,6.8,11.762,6.8Z" transform="translate(295.007 150.059)"/>
      <path id="Path_56" data-name="Path 56" d="M356.909,607.876l-14.228-8.212v16.424Z" transform="translate(361.207 149.115)"/>
      <path id="Path_57" data-name="Path 57" d="M331.665,598.863l-18.4,10.624,18.4,10.618Z" transform="translate(475.065 147.504)"/>
      <path id="Path_58" data-name="Path 58" d="M309.253,633.4l-11.845-6.84v13.685Z" transform="translate(545.224 203.233)"/>
      <path id="Path_59" data-name="Path 59" d="M301.055,640.189l-9.736,5.619,9.736,5.618Z" transform="translate(571.762 230.648)"/>
      <path id="Path_60" data-name="Path 60" d="M282.755,671.283l-7.225-4.171v8.352Z" transform="translate(637.616 284.816)"/>
      <path id="Path_61" data-name="Path 61" d="M406.925,628.827l-.029.018.029.017Z" transform="translate(117.785 207.79)"/>
      <path id="Path_62" data-name="Path 62" d="M393.229,587.18l-10.379,5.993,10.379,5.992Z" transform="translate(203.905 123.998)"/>
      <path id="Path_63" data-name="Path 63" d="M379.441,594.476l-13.755-7.944v15.881Z" transform="translate(269.388 122.695)"/>
      <path id="Path_64" data-name="Path 64" d="M355.24,585.495l-19.163,11.068,19.163,11.062Z" transform="translate(382.77 120.607)"/>
      <path id="Path_65" data-name="Path 65" d="M339.413,597.331l-21.167-12.219V609.55Z" transform="translate(452.301 119.839)"/>
      <path id="Path_66" data-name="Path 66" d="M316.167,610.385l-20.723-11.968v23.935Z" transform="translate(544.228 146.607)"/>
      <path id="Path_67" data-name="Path 67" d="M307.953,612.259l-17.493,10.1,17.493,10.093Z" transform="translate(567.452 174.455)"/>
      <path id="Path_68" data-name="Path 68" d="M287.23,647.06l-12.972-7.494v14.993Z" transform="translate(636.973 229.395)"/>
      <path id="Path_69" data-name="Path 69" d="M280.337,652.941l-12.189,7.032,12.189,7.043Z" transform="translate(662.269 256.304)"/>
      <path id="Path_70" data-name="Path 70" d="M275.211,680.488l-6.425,3.709,6.425,3.709Z" transform="translate(665.474 311.728)"/>
      <path id="Path_71" data-name="Path 71" d="M278.768,695.753l-2.1-1.215v2.424Z" transform="translate(638.187 339.994)"/>
      <path id="Path_72" data-name="Path 72" d="M415.268,615.979l-.946-.549v1.1Z" transform="translate(87.072 180.834)"/>
      <path id="Path_73" data-name="Path 73" d="M410.259,601.667l-3.779,2.179,3.779,2.172Z" transform="translate(115.701 153.146)"/>
      <path id="Path_74" data-name="Path 74" d="M414.164,574.381l-8.171,4.719,8.171,4.719Z" transform="translate(113.261 98.248)"/>
      <path id="Path_75" data-name="Path 75" d="M400.272,580.232l-11.1-6.413v12.814Z" transform="translate(177.809 97.117)"/>
      <path id="Path_76" data-name="Path 76" d="M377.3,572.456l-18.217,10.519L377.3,593.487Z" transform="translate(291.424 94.374)"/>
      <path id="Path_77" data-name="Path 77" d="M362.281,584.1l-21.125-12.2v24.4Z" transform="translate(360.432 93.25)"/>
      <path id="Path_78" data-name="Path 78" d="M337.923,571.069l-25.442,14.7,25.442,14.683Z" transform="translate(471.155 91.585)"/>
      <path id="Path_79" data-name="Path 79" d="M321.214,586.443l-27.205-15.711v31.416Z" transform="translate(543.502 90.906)"/>
      <path id="Path_80" data-name="Path 80" d="M314.861,584.325,289.6,598.916l25.26,14.584Z" transform="translate(563.13 118.255)"/>
      <path id="Path_81" data-name="Path 81" d="M293.079,623.516,272.6,611.683v23.666Z" transform="translate(636.129 173.297)"/>
      <path id="Path_82" data-name="Path 82" d="M285.92,625.294l-18.468,10.659,18.468,10.665Z" transform="translate(658.783 200.681)"/>
      <path id="Path_83" data-name="Path 83" d="M267.5,661.846l-17.043-9.836v19.677Z" transform="translate(728.391 254.431)"/>
      <path id="Path_84" data-name="Path 84" d="M261.431,665.3l-16.68,9.626,16.68,9.637Z" transform="translate(751.649 281.172)"/>
      <path id="Path_85" data-name="Path 85" d="M262.834,685.984,251.783,679.6v12.762Z" transform="translate(729.062 309.941)"/>
      <path id="Path_86" data-name="Path 86" d="M270.9,707.86l-1.577.911,1.577.911Z" transform="translate(668.175 366.797)"/>
      <path id="Path_87" data-name="Path 87" d="M418.27,591.027l-4.8-2.781V593.8Z" transform="translate(86.64 126.143)"/>
      <path id="Path_88" data-name="Path 88" d="M421.285,566.068l-8.674-5.005v10.011Z" transform="translate(86.206 71.453)"/>
      <path id="Path_89" data-name="Path 89" d="M397.794,559.752l-15.512,8.954,15.512,8.954Z" transform="translate(201.051 68.816)"/>
      <path id="Path_90" data-name="Path 90" d="M383.608,570.094l-19.1-11.033v22.066Z" transform="translate(268.784 67.427)"/>
      <path id="Path_91" data-name="Path 91" d="M360.36,557.949l-24.921,14.386L360.36,586.72Z" transform="translate(379.57 65.187)"/>
      <path id="Path_92" data-name="Path 92" d="M343.96,573.142l-27.007-15.594v31.195Z" transform="translate(451.65 64.38)"/>
      <path id="Path_93" data-name="Path 93" d="M318.841,557.026l-29.735,17.165,29.735,17.166Z" transform="translate(560.64 63.33)"/>
      <path id="Path_94" data-name="Path 94" d="M298.5,599.758l-27.445-15.852V615.6Z" transform="translate(635.352 117.412)"/>
      <path id="Path_95" data-name="Path 95" d="M292.611,597.407,266.62,612.417l25.991,15Z" transform="translate(654.598 144.574)"/>
      <path id="Path_96" data-name="Path 96" d="M272.162,637.713l-23.03-13.293v26.586Z" transform="translate(727.717 198.921)"/>
      <path id="Path_97" data-name="Path 97" d="M266.458,637.772l-22.335,12.9,22.335,12.9Z" transform="translate(748.508 225.787)"/>
      <path id="Path_98" data-name="Path 98" d="M249.042,677.267l-22.749-13.13v26.271Z" transform="translate(819.628 278.831)"/>
      <path id="Path_99" data-name="Path 99" d="M255.883,692.94l-10.443,6.027,10.443,6.028Z" transform="translate(755.117 336.78)"/>
      <path id="Path_100" data-name="Path 100" d="M258.335,710.195l-5.274-3.043v6.086Z" transform="translate(729.711 365.374)"/>
      <path id="Path_101" data-name="Path 101" d="M431.9,588.715l-2.36,1.368,2.36,1.36Z" transform="translate(24.618 127.088)"/>
      <path id="Path_102" data-name="Path 102" d="M417.636,547.19l-12.073,6.968,12.073,6.968Z" transform="translate(111.086 43.542)"/>
      <path id="Path_103" data-name="Path 103" d="M403.629,555.445l-15.408-8.9v17.79Z" transform="translate(177.326 42.255)"/>
      <path id="Path_104" data-name="Path 104" d="M381.215,545.168l-22.62,13.06,22.62,13.06Z" transform="translate(288.973 39.473)"/>
      <path id="Path_105" data-name="Path 105" d="M365.7,559.347l-25.518-14.736v29.472Z" transform="translate(359.945 38.353)"/>
      <path id="Path_106" data-name="Path 106" d="M341.326,543.894l-29.268,16.9,29.268,16.9Z" transform="translate(469.025 36.91)"/>
      <path id="Path_107" data-name="Path 107" d="M323.616,561.185,293.326,543.7v34.979Z" transform="translate(543.156 36.516)"/>
      <path id="Path_108" data-name="Path 108" d="M301.461,574.772l-31.248-18.036v36.077Z" transform="translate(634.926 62.749)"/>
      <path id="Path_109" data-name="Path 109" d="M296.787,570.065,266.1,587.785l30.687,17.709Z" transform="translate(651.987 89.564)"/>
      <path id="Path_110" data-name="Path 110" d="M277.051,613.7l-29.308-16.927v33.852Z" transform="translate(727.017 143.294)"/>
      <path id="Path_111" data-name="Path 111" d="M272.037,610.128,243.43,626.645l28.607,16.517Z" transform="translate(745.02 170.168)"/>
      <path id="Path_112" data-name="Path 112" d="M253.268,652.916l-28.175-16.26v32.527Z" transform="translate(819.018 223.54)"/>
      <path id="Path_113" data-name="Path 113" d="M249.417,649.729l-28.922,16.7,28.922,16.7Z" transform="translate(836.717 249.843)"/>
      <path id="Path_114" data-name="Path 114" d="M244.129,677.316,221.152,690.58l22.977,13.264Z" transform="translate(840.025 305.346)"/>
      <path id="Path_115" data-name="Path 115" d="M243.776,701.109l-15.986-9.234v18.468Z" transform="translate(820.386 334.638)"/>
      <path id="Path_116" data-name="Path 116" d="M250.71,720.5l-4.626,2.675,4.626,2.664Z" transform="translate(758.351 392.223)"/>
      <path id="Path_117" data-name="Path 117" d="M254.952,734.966l-.928-.538V735.5Z" transform="translate(730.198 420.251)"/>
      <path id="Path_118" data-name="Path 118" d="M439.716,577.079l-2.932-1.694v3.387Z" transform="translate(-5.027 100.269)"/>
      <path id="Path_119" data-name="Path 119" d="M435.128,561.577l-5.993,3.457,5.993,3.463Z" transform="translate(22.596 72.487)"/>
      <path id="Path_120" data-name="Path 120" d="M437.964,534.523l-9.181,5.3,9.181,5.3Z" transform="translate(20.823 18.057)"/>
      <path id="Path_121" data-name="Path 121" d="M424.078,541.011l-12.26-7.079V548.09Z" transform="translate(85.802 16.868)"/>
      <path id="Path_122" data-name="Path 122" d="M400.832,532.654,381.9,543.582l18.929,10.928Z" transform="translate(199.151 14.297)"/>
      <path id="Path_123" data-name="Path 123" d="M386.264,544.964l-22.515-13v25.991Z" transform="translate(268.399 12.915)"/>
      <path id="Path_124" data-name="Path 124" d="M362.663,531.01l-27.509,15.881,27.509,15.88Z" transform="translate(378.126 10.988)"/>
      <path id="Path_125" data-name="Path 125" d="M345.779,547.6l-29.344-16.944v33.887Z" transform="translate(451.391 10.278)"/>
      <path id="Path_126" data-name="Path 126" d="M320.107,530.31,288.948,548.3l31.159,17.989Z" transform="translate(559.853 9.58)"/>
      <path id="Path_127" data-name="Path 127" d="M301.811,548.506l-31.7-18.3v36.6Z" transform="translate(634.873 9.373)"/>
      <path id="Path_128" data-name="Path 128" d="M298.2,543.318l-32.27,18.632,32.27,18.632Z" transform="translate(651.105 35.75)"/>
      <path id="Path_129" data-name="Path 129" d="M279.547,588.487l-32.515-18.772v37.538Z" transform="translate(726.658 88.861)"/>
      <path id="Path_130" data-name="Path 130" d="M275.589,582.919l-32.6,18.825,32.6,18.818Z" transform="translate(742.799 115.426)"/>
      <path id="Path_131" data-name="Path 131" d="M257.433,628.541l-33.525-19.356V647.9Z" transform="translate(818.422 168.271)"/>
      <path id="Path_132" data-name="Path 132" d="M253.993,622.3l-34.068,19.672,34.068,19.671Z" transform="translate(833.858 194.661)"/>
      <path id="Path_133" data-name="Path 133" d="M235.588,668.728l-34.88-20.139v40.277Z" transform="translate(910.144 247.549)"/>
      <path id="Path_134" data-name="Path 134" d="M232.257,661.717,196.88,682.136l35.377,20.43Z" transform="translate(925.005 273.962)"/>
      <path id="Path_135" data-name="Path 135" d="M231.109,692.956l-29.127-16.821v33.636Z" transform="translate(910.785 302.97)"/>
      <path id="Path_136" data-name="Path 136" d="M237.3,705.228,222,714.066l15.3,8.837Z" transform="translate(844.292 361.503)"/>
      <path id="Path_137" data-name="Path 137" d="M238.455,724.92l-9.152-5.291V730.2Z" transform="translate(821.151 390.475)"/>
      <path id="Path_138" data-name="Path 138" d="M247.141,747.71l-.613.357.613.35Z" transform="translate(760.582 446.972)"/>
      <path id="Path_139" data-name="Path 139" d="M453.7,575.731l-1.122.654,1.122.643Z" transform="translate(-66.568 100.964)"/>
      <path id="Path_140" data-name="Path 140" d="M442.24,551.888l-6.174-3.569v7.138Z" transform="translate(-5.39 45.813)"/>
      <path id="Path_141" data-name="Path 141" d="M444.7,526.652l-9.327-5.379v10.764Z" transform="translate(-5.743 -8.601)"/>
      <path id="Path_142" data-name="Path 142" d="M420.647,520.1l-15.46,8.919,15.46,8.924Z" transform="translate(109.209 -10.965)"/>
      <path id="Path_143" data-name="Path 143" d="M406.04,530.191l-18.5-10.677v21.365Z" transform="translate(176.977 -12.14)"/>
      <path id="Path_144" data-name="Path 144" d="M383.21,518.295l-24.863,14.35L383.21,547Z" transform="translate(287.726 -14.594)"/>
      <path id="Path_145" data-name="Path 145" d="M367.169,533.624l-27.4-15.816v31.639Z" transform="translate(359.731 -15.573)"/>
      <path id="Path_146" data-name="Path 146" d="M342.167,517.269l-30.214,17.44,30.214,17.446Z" transform="translate(468.499 -16.657)"/>
      <path id="Path_147" data-name="Path 147" d="M323.964,534.912l-30.739-17.744v35.5Z" transform="translate(543.111 -16.86)"/>
      <path id="Path_148" data-name="Path 148" d="M297.348,517.056,266.03,535.138l31.318,18.082Z" transform="translate(651.637 -17.087)"/>
      <path id="Path_149" data-name="Path 149" d="M279.9,562.215l-32.964-19.029v38.057Z" transform="translate(726.605 35.485)"/>
      <path id="Path_150" data-name="Path 150" d="M276.624,556.254l-33.765,19.49,33.765,19.49Z" transform="translate(742.15 61.777)"/>
      <path id="Path_151" data-name="Path 151" d="M259.09,602.918l-35.652-20.583V623.5Z" transform="translate(818.178 114.252)"/>
      <path id="Path_152" data-name="Path 152" d="M256.658,595.285l-37.065,21.4,37.065,21.4Z" transform="translate(832.192 140.306)"/>
      <path id="Path_153" data-name="Path 153" d="M238.9,643.927l-39.138-22.6v45.195Z" transform="translate(909.667 192.707)"/>
      <path id="Path_154" data-name="Path 154" d="M236.189,634.427l-39.8,22.971,39.8,22.977Z" transform="translate(922.544 219.057)"/>
      <path id="Path_155" data-name="Path 155" d="M217.5,684.329l-41.065-23.7v47.414Z" transform="translate(1001.323 271.769)"/>
      <path id="Path_156" data-name="Path 156" d="M225.8,689.552l-28.111,16.231L225.8,722.014Z" transform="translate(929.042 329.964)"/>
      <path id="Path_157" data-name="Path 157" d="M224.733,716.238,203.8,704.148v24.181Z" transform="translate(911.7 359.33)"/>
      <path id="Path_158" data-name="Path 158" d="M230.921,733.047l-8.124,4.7,8.124,4.689Z" transform="translate(848.28 417.473)"/>
      <path id="Path_159" data-name="Path 159" d="M234.126,749.217l-3.592-2.08v4.147Z" transform="translate(821.771 445.821)"/>
      <path id="Path_160" data-name="Path 160" d="M461.789,563.447l-1.869-1.081v2.161Z" transform="translate(-96.785 74.075)"/>
      <path id="Path_161" data-name="Path 161" d="M456.341,548.718l-4.094,2.365,4.094,2.366Z" transform="translate(-68.225 46.617)"/>
      <path id="Path_162" data-name="Path 162" d="M440.837,507.461l-12.411,7.161,12.411,7.172Z" transform="translate(19.024 -36.391)"/>
      <path id="Path_163" data-name="Path 163" d="M426.6,515.811l-15.5-8.942v17.89Z" transform="translate(85.445 -37.581)"/>
      <path id="Path_164" data-name="Path 164" d="M403.014,505.74l-21.383,12.341,21.383,12.346Z" transform="translate(197.788 -39.852)"/>
      <path id="Path_165" data-name="Path 165" d="M387.719,519.241l-24.385-14.076v28.152Z" transform="translate(268.195 -41.01)"/>
      <path id="Path_166" data-name="Path 166" d="M363.037,504.486l-27.93,16.12,27.93,16.132Z" transform="translate(377.892 -42.376)"/>
      <path id="Path_167" data-name="Path 167" d="M345.611,521.07l-29.127-16.815v33.636Z" transform="translate(451.412 -42.84)"/>
      <path id="Path_168" data-name="Path 168" d="M318.44,504.226l-29.284,16.9,29.284,16.9Z" transform="translate(560.895 -42.899)"/>
      <path id="Path_169" data-name="Path 169" d="M299.755,521.043,270.7,504.269v33.555Z" transform="translate(635.171 -42.813)"/>
      <path id="Path_170" data-name="Path 170" d="M278.306,534.982l-30.92-17.849v35.7Z" transform="translate(726.837 -16.931)"/>
      <path id="Path_171" data-name="Path 171" d="M275.378,530.079l-32.363,18.684,32.363,18.684Z" transform="translate(742.929 9.116)"/>
      <path id="Path_172" data-name="Path 172" d="M258.671,576.267l-35.114-20.273V596.54Z" transform="translate(818.241 61.254)"/>
      <path id="Path_173" data-name="Path 173" d="M256.315,568.917,219.636,590.1l36.679,21.172Z" transform="translate(832.406 87.254)"/>
      <path id="Path_174" data-name="Path 174" d="M240.36,618.207l-41.007-23.678v47.356Z" transform="translate(909.455 138.785)"/>
      <path id="Path_175" data-name="Path 175" d="M238.776,607.426,196.069,632.08l42.707,24.653Z" transform="translate(920.927 164.733)"/>
      <path id="Path_176" data-name="Path 176" d="M220.193,659.225l-44.517-25.7v51.415Z" transform="translate(1000.936 217.231)"/>
      <path id="Path_177" data-name="Path 177" d="M218.623,646.5l-45.8,26.435,45.8,26.44Z" transform="translate(1011.085 243.344)"/>
      <path id="Path_178" data-name="Path 178" d="M214.213,673.891,173.375,697.47l40.838,23.578Z" transform="translate(1013.843 298.456)"/>
      <path id="Path_179" data-name="Path 179" d="M211.925,708.015l-33.9-19.572v39.143Z" transform="translate(1002.125 327.732)"/>
      <path id="Path_180" data-name="Path 180" d="M217.77,717.724l-19.087,11.027,19.087,11.016Z" transform="translate(934.059 386.644)"/>
      <path id="Path_181" data-name="Path 181" d="M218.08,739.39l-12.394-7.161v14.31Z" transform="translate(912.659 415.827)"/>
      <path id="Path_182" data-name="Path 182" d="M226.583,760.425l-3.247,1.881,3.247,1.874Z" transform="translate(850.994 472.554)"/>
      <path id="Path_183" data-name="Path 183" d="M231.333,774.274l-.006-.006v.012Z" transform="translate(822.175 500.407)"/>
      <path id="Path_184" data-name="Path 184" d="M476.145,562.609l-.613.35.613.357Z" transform="translate(-158.164 74.563)"/>
      <path id="Path_185" data-name="Path 185" d="M463.9,538.05l-4.579-2.646V540.7Z" transform="translate(-97.083 19.829)"/>
      <path id="Path_186" data-name="Path 186" d="M458.943,521.714l-7.02,4.053,7.02,4.065Z" transform="translate(-69.852 -7.715)"/>
      <path id="Path_187" data-name="Path 187" d="M461.343,494.753l-9.719,5.613,9.719,5.618Z" transform="translate(-71.353 -61.957)"/>
      <path id="Path_188" data-name="Path 188" d="M446.933,501.322l-12.2-7.043v14.087Z" transform="translate(-6.066 -62.913)"/>
      <path id="Path_189" data-name="Path 189" d="M422.638,493.225l-17.7,10.215,17.7,10.221Z" transform="translate(107.96 -65.032)"/>
      <path id="Path_190" data-name="Path 190" d="M407.364,504.4l-20.2-11.658v23.327Z" transform="translate(176.787 -65.995)"/>
      <path id="Path_191" data-name="Path 191" d="M383.117,491.872l-24.759,14.292,24.759,14.3Z" transform="translate(287.784 -67.755)"/>
      <path id="Path_192" data-name="Path 192" d="M366.156,506.682l-26.1-15.068v30.137Z" transform="translate(359.874 -68.274)"/>
      <path id="Path_193" data-name="Path 193" d="M339.331,491.437l-27.025,15.6,27.025,15.606Z" transform="translate(470.273 -68.629)"/>
      <path id="Path_194" data-name="Path 194" d="M320.819,506.909l-26.7-15.408v30.821Z" transform="translate(543.559 -68.5)"/>
      <path id="Path_195" data-name="Path 195" d="M292.408,491.68l-25.763,14.87,25.763,14.876Z" transform="translate(654.725 -68.141)"/>
      <path id="Path_196" data-name="Path 196" d="M273.572,506.191l-24.84-14.333v28.677Z" transform="translate(727.517 -67.782)"/>
      <path id="Path_197" data-name="Path 197" d="M271.451,504.482,243.5,520.614l27.948,16.143Z" transform="translate(745.385 -42.384)"/>
      <path id="Path_198" data-name="Path 198" d="M256.86,548.928,224.071,530v37.859Z" transform="translate(818.504 8.951)"/>
      <path id="Path_199" data-name="Path 199" d="M254.342,542.9l-34.459,19.9,34.459,19.9Z" transform="translate(833.638 34.904)"/>
      <path id="Path_200" data-name="Path 200" d="M238.691,590.938,199.827,568.5v44.873Z" transform="translate(909.692 86.411)"/>
      <path id="Path_201" data-name="Path 201" d="M237.747,581.2,196.2,605.2l41.55,23.981Z" transform="translate(921.57 111.973)"/>
      <path id="Path_202" data-name="Path 202" d="M221.656,633.508l-46.4-26.791V660.3Z" transform="translate(1000.728 163.305)"/>
      <path id="Path_203" data-name="Path 203" d="M220.779,619.591l-48.22,27.837,48.22,27.842Z" transform="translate(1009.735 189.207)"/>
      <path id="Path_204" data-name="Path 204" d="M201.294,674.424l-49.657-28.666v57.331Z" transform="translate(1092.234 241.853)"/>
      <path id="Path_205" data-name="Path 205" d="M199.5,658.905l-50.043,28.888,50.043,28.9Z" transform="translate(1100.601 268.305)"/>
      <path id="Path_206" data-name="Path 206" d="M198.406,699.445,152.457,672.91v53.062Z" transform="translate(1092.652 296.481)"/>
      <path id="Path_207" data-name="Path 207" d="M206.692,701.955l-32.381,18.7,32.381,18.7Z" transform="translate(1018.542 354.917)"/>
      <path id="Path_208" data-name="Path 208" d="M204.534,730.8l-24.408-14.093v28.181Z" transform="translate(1003.191 384.596)"/>
      <path id="Path_209" data-name="Path 209" d="M210.565,745.722l-10.986,6.344,10.986,6.343Z" transform="translate(938.566 442.973)"/>
      <path id="Path_210" data-name="Path 210" d="M213.386,763.507l-6.366-3.68v7.353Z" transform="translate(913.334 471.353)"/>
      <path id="Path_211" data-name="Path 211" d="M484.211,549.984l-1.256-.719v1.443Z" transform="translate(-188.588 47.717)"/>
      <path id="Path_212" data-name="Path 212" d="M478.155,535.732l-2.873,1.659,2.873,1.658Z" transform="translate(-159.421 20.488)"/>
      <path id="Path_213" data-name="Path 213" d="M466.24,512.764l-7.587-4.381v8.761Z" transform="translate(-97.423 -34.534)"/>
      <path id="Path_214" data-name="Path 214" d="M467.741,487.063l-9.514-5.491v10.981Z" transform="translate(-97.639 -88.476)"/>
      <path id="Path_215" data-name="Path 215" d="M442.224,480.718l-13.97,8.066,13.97,8.072Z" transform="translate(18.157 -90.196)"/>
      <path id="Path_216" data-name="Path 216" d="M427.284,489.712l-16.377-9.456v18.918Z" transform="translate(85.341 -91.125)"/>
      <path id="Path_217" data-name="Path 217" d="M402.194,479.475l-20.46,11.81,20.46,11.81Z" transform="translate(198.298 -92.697)"/>
      <path id="Path_218" data-name="Path 218" d="M385.958,491.924l-22.124-12.768V504.7Z" transform="translate(268.448 -93.337)"/>
      <path id="Path_219" data-name="Path 219" d="M359.021,478.908l-23.415,13.515,23.415,13.521Z" transform="translate(380.408 -93.836)"/>
      <path id="Path_220" data-name="Path 220" d="M341.5,492.6l-23.853-13.772v27.544Z" transform="translate(452.003 -94.008)"/>
      <path id="Path_221" data-name="Path 221" d="M312.555,479.052l-22.667,13.083,22.667,13.089Z" transform="translate(564.572 -93.547)"/>
      <path id="Path_222" data-name="Path 222" d="M294.489,491.995,272.2,479.121v25.746Z" transform="translate(635.928 -93.407)"/>
      <path id="Path_223" data-name="Path 223" d="M264.787,479.475l-20.454,11.81,20.454,11.81Z" transform="translate(749.548 -92.697)"/>
      <path id="Path_224" data-name="Path 224" d="M252.576,520.356,225.289,504.61v31.5Z" transform="translate(819.12 -42.126)"/>
      <path id="Path_225" data-name="Path 225" d="M250.976,517.18,220.3,534.888l30.675,17.72Z" transform="translate(835.742 -16.837)"/>
      <path id="Path_226" data-name="Path 226" d="M235.812,563.066l-35.166-20.3v40.6Z" transform="translate(910.107 34.635)"/>
      <path id="Path_227" data-name="Path 227" d="M234.341,555.494l-37.719,21.779,37.719,21.78Z" transform="translate(923.697 60.248)"/>
      <path id="Path_228" data-name="Path 228" d="M219.678,606.086l-43.857-25.325v50.65Z" transform="translate(1001.012 111.084)"/>
      <path id="Path_229" data-name="Path 229" d="M219.6,593.4l-46.9,27.084,46.9,27.077Z" transform="translate(1010.472 136.51)"/>
      <path id="Path_230" data-name="Path 230" d="M202.553,648.605l-51.274-29.6v59.2Z" transform="translate(1092.056 188.029)"/>
      <path id="Path_231" data-name="Path 231" d="M201.083,632.122,149.26,662.038l51.824,29.921Z" transform="translate(1099.606 214.418)"/>
      <path id="Path_232" data-name="Path 232" d="M180.472,688.675l-52.326-30.208v60.421Z" transform="translate(1183.81 267.423)"/>
      <path id="Path_233" data-name="Path 233" d="M194.143,686.5,150.123,711.92l44.021,25.419Z" transform="translate(1103.947 323.827)"/>
      <path id="Path_234" data-name="Path 234" d="M191.784,722.6,154.34,700.985v43.232Z" transform="translate(1093.603 352.967)"/>
      <path id="Path_235" data-name="Path 235" d="M197.508,730.379l-22.054,12.733,22.054,12.732Z" transform="translate(1024.286 412.105)"/>
      <path id="Path_236" data-name="Path 236" d="M197.439,753.731l-15.3-8.837v17.668Z" transform="translate(1004.211 441.307)"/>
      <path id="Path_237" data-name="Path 237" d="M205.211,773.316l-4.965,2.874,4.965,2.868Z" transform="translate(941.911 498.491)"/>
      <path id="Path_238" data-name="Path 238" d="M209.4,787.975l-1.25-.724V788.7Z" transform="translate(913.907 526.527)"/>
      <path id="Path_239" data-name="Path 239" d="M499.041,549.385l-.607.356.607.356Z" transform="translate(-250.038 47.959)"/>
      <path id="Path_240" data-name="Path 240" d="M485.916,524.386,482.47,522.4v3.983Z" transform="translate(-188.833 -6.334)"/>
      <path id="Path_241" data-name="Path 241" d="M480.508,508.781l-5.519,3.183,5.519,3.189Z" transform="translate(-160.892 -33.734)"/>
      <path id="Path_242" data-name="Path 242" d="M462.3,468.105l-10.8,6.232,10.8,6.232Z" transform="translate(-71.951 -115.571)"/>
      <path id="Path_243" data-name="Path 243" d="M447.214,475.02l-12.563-7.254v14.508Z" transform="translate(-6.1 -116.254)"/>
      <path id="Path_244" data-name="Path 244" d="M421.463,467.033l-16.377,9.462,16.377,9.462Z" transform="translate(108.696 -117.729)"/>
      <path id="Path_245" data-name="Path 245" d="M405.5,477.041l-17.809-10.28V487.32Z" transform="translate(177.057 -118.275)"/>
      <path id="Path_246" data-name="Path 246" d="M378.925,466.331l-20.045,11.576,20.045,11.576Z" transform="translate(290.405 -119.141)"/>
      <path id="Path_247" data-name="Path 247" d="M361.7,478.032l-20.378-11.763V489.8Z" transform="translate(360.518 -119.266)"/>
      <path id="Path_248" data-name="Path 248" d="M333.145,466.327l-20.068,11.588L333.145,489.5Z" transform="translate(474.14 -119.149)"/>
      <path id="Path_249" data-name="Path 249" d="M315.116,477.645l-19.374-11.185v22.375Z" transform="translate(544.379 -118.88)"/>
      <path id="Path_250" data-name="Path 250" d="M285.546,466.715,267.5,477.135l18.048,10.42Z" transform="translate(659.017 -118.369)"/>
      <path id="Path_251" data-name="Path 251" d="M267.487,476.741l-17.026-9.83v19.665Z" transform="translate(728.393 -117.975)"/>
      <path id="Path_252" data-name="Path 252" d="M246.92,491.117,226.9,479.558v23.123Z" transform="translate(819.928 -92.529)"/>
      <path id="Path_253" data-name="Path 253" d="M244.675,492.1l-23.59,13.615,23.59,13.62Z" transform="translate(839.684 -67.302)"/>
      <path id="Path_254" data-name="Path 254" d="M232.183,534.822l-30.506-17.609v35.224Z" transform="translate(910.629 -16.77)"/>
      <path id="Path_255" data-name="Path 255" d="M230.383,529.9l-33.268,19.21,33.268,19.21Z" transform="translate(926.172 8.765)"/>
      <path id="Path_256" data-name="Path 256" d="M215.714,577.671,176.949,555.3v44.756Z" transform="translate(1001.578 59.85)"/>
      <path id="Path_257" data-name="Path 257" d="M215.237,567.9l-41.988,24.25,41.988,24.238Z" transform="translate(1013.198 85.202)"/>
      <path id="Path_258" data-name="Path 258" d="M200.393,621.094l-48.5-28v56Z" transform="translate(1092.364 135.897)"/>
      <path id="Path_259" data-name="Path 259" d="M200.594,605.784l-51.274,29.6,51.274,29.6Z" transform="translate(1099.914 161.429)"/>
      <path id="Path_260" data-name="Path 260" d="M181.285,662.638l-53.371-30.815v61.63Z" transform="translate(1183.698 213.817)"/>
      <path id="Path_261" data-name="Path 261" d="M179.908,644.97l-53.763,31.038,53.763,31.049Z" transform="translate(1190.402 240.269)"/>
      <path id="Path_262" data-name="Path 262" d="M177.191,672l-50.708,29.279,50.708,29.273Z" transform="translate(1192.103 294.648)"/>
      <path id="Path_263" data-name="Path 263" d="M176.02,712.915l-46.608-26.908v53.816Z" transform="translate(1184.448 322.832)"/>
      <path id="Path_264" data-name="Path 264" d="M185.18,714.877l-33.94,19.6,33.94,19.59Z" transform="translate(1109.546 380.917)"/>
      <path id="Path_265" data-name="Path 265" d="M183.384,744.887,156.727,729.5v30.774Z" transform="translate(1094.813 410.33)"/>
      <path id="Path_266" data-name="Path 266" d="M190.34,758.365l-13.994,8.084,13.994,8.077Z" transform="translate(1028.767 468.411)"/>
      <path id="Path_267" data-name="Path 267" d="M191.94,777.446l-8.235-4.755V782.2Z" transform="translate(1005.002 497.235)"/>
      <path id="Path_268" data-name="Path 268" d="M200.8,800.711l-.006.006.006.011Z" transform="translate(944.668 553.607)"/>
      <path id="Path_269" data-name="Path 269" d="M507.007,536.716l-1.122-.649v1.3Z" transform="translate(-280.45 21.163)"/>
      <path id="Path_270" data-name="Path 270" d="M500.49,522.633l-2.237,1.285,2.237,1.3Z" transform="translate(-250.943 -5.866)"/>
      <path id="Path_271" data-name="Path 271" d="M487.608,498.786l-5.618-3.247v6.5Z" transform="translate(-189.076 -60.377)"/>
      <path id="Path_272" data-name="Path 272" d="M482.2,481.974l-7.424,4.281,7.424,4.287Z" transform="translate(-161.948 -87.668)"/>
      <path id="Path_273" data-name="Path 273" d="M482.7,455.423l-7.979,4.608,7.979,4.608Z" transform="translate(-162.262 -141.087)"/>
      <path id="Path_274" data-name="Path 274" d="M467.741,460.621l-9.514-5.49v10.98Z" transform="translate(-97.639 -141.676)"/>
      <path id="Path_275" data-name="Path 275" d="M440.972,454.545,428.408,461.8l12.563,7.254Z" transform="translate(18.942 -142.854)"/>
      <path id="Path_276" data-name="Path 276" d="M425.447,462.361l-14.018-8.1v16.19Z" transform="translate(85.608 -143.416)"/>
      <path id="Path_277" data-name="Path 277" d="M398.339,453.862l-16.126,9.31,16.126,9.31Z" transform="translate(200.71 -144.228)"/>
      <path id="Path_278" data-name="Path 278" d="M381.739,463.4l-16.7-9.649v19.292Z" transform="translate(269.053 -144.454)"/>
      <path id="Path_279" data-name="Path 279" d="M353.174,453.726l-16.839,9.719,16.839,9.719Z" transform="translate(384.059 -144.501)"/>
      <path id="Path_280" data-name="Path 280" d="M335.787,463.321l-16.511-9.532v19.064Z" transform="translate(452.825 -144.376)"/>
      <path id="Path_281" data-name="Path 281" d="M306.1,454l-15.413,8.9,15.413,8.9Z" transform="translate(568.605 -143.954)"/>
      <path id="Path_282" data-name="Path 282" d="M288.564,462.618l-14.684-8.481v16.955Z" transform="translate(636.778 -143.673)"/>
      <path id="Path_283" data-name="Path 283" d="M258.527,454.382l-13.416,7.745,13.416,7.744Z" transform="translate(753.466 -143.182)"/>
      <path id="Path_284" data-name="Path 284" d="M241.808,462.142l-13.457-7.768V469.91Z" transform="translate(820.666 -143.197)"/>
      <path id="Path_285" data-name="Path 285" d="M238.457,466.994l-16.6,9.579,16.6,9.578Z" transform="translate(843.571 -117.807)"/>
      <path id="Path_286" data-name="Path 286" d="M226.538,505.586l-23.257-13.427V519.02Z" transform="translate(911.443 -67.178)"/>
      <path id="Path_287" data-name="Path 287" d="M224.574,504.715l-26.738,15.431,26.738,15.442Z" transform="translate(929.807 -41.916)"/>
      <path id="Path_288" data-name="Path 288" d="M211.678,549.24l-33.583-19.4V568.63Z" transform="translate(1002.161 8.639)"/>
      <path id="Path_289" data-name="Path 289" d="M210.037,542.575l-36.142,20.869,36.142,20.868Z" transform="translate(1016.453 34.256)"/>
      <path id="Path_290" data-name="Path 290" d="M195.8,592.381l-42.6-24.6v49.2Z" transform="translate(1093.028 84.968)"/>
      <path id="Path_291" data-name="Path 291" d="M195.826,580.367l-45.913,26.511,45.913,26.5Z" transform="translate(1102.895 110.292)"/>
      <path id="Path_292" data-name="Path 292" d="M180.081,635.6l-51.824-29.927v59.849Z" transform="translate(1183.869 161.21)"/>
      <path id="Path_293" data-name="Path 293" d="M179.674,618.579l-53.5,30.885,53.5,30.885Z" transform="translate(1190.548 187.17)"/>
      <path id="Path_294" data-name="Path 294" d="M158.7,676.008,104.925,644.97v62.086Z" transform="translate(1275.525 240.269)"/>
      <path id="Path_295" data-name="Path 295" d="M156.077,658.394l-52.717,30.43,52.717,30.441Z" transform="translate(1282.86 267.275)"/>
      <path id="Path_296" data-name="Path 296" d="M156.666,701.449,105.5,671.913v59.072Z" transform="translate(1275.817 294.476)"/>
      <path id="Path_297" data-name="Path 297" d="M170.023,699.989l-42.649,24.618,42.649,24.618Z" transform="translate(1196.584 350.962)"/>
      <path id="Path_298" data-name="Path 298" d="M168.03,735.4l-36.347-20.984v41.965Z" transform="translate(1185.599 379.992)"/>
      <path id="Path_299" data-name="Path 299" d="M175.606,743.385,152.43,756.766l23.176,13.375Z" transform="translate(1115.534 438.272)"/>
      <path id="Path_300" data-name="Path 300" d="M176.341,767.845l-17.61-10.174v20.343Z" transform="translate(1095.823 467.014)"/>
      <path id="Path_301" data-name="Path 301" d="M183.241,786.34l-6.01,3.47,6.01,3.469Z" transform="translate(1033.204 524.693)"/>
      <path id="Path_302" data-name="Path 302" d="M187.012,801.446l-1.9-1.1v2.2Z" transform="translate(1005.708 552.878)"/>
      <path id="Path_303" data-name="Path 303" d="M529.044,549.508l-.012-.006v.012Z" transform="translate(-372.2 48.192)"/>
      <path id="Path_304" data-name="Path 304" d="M521.947,536.164l-.613.357.613.356Z" transform="translate(-341.915 21.358)"/>
      <path id="Path_305" data-name="Path 305" d="M508.294,510.907l-2.775-1.6v3.2Z" transform="translate(-280.632 -32.677)"/>
      <path id="Path_306" data-name="Path 306" d="M502.177,495.826l-4.135,2.383,4.135,2.395Z" transform="translate(-251.994 -59.8)"/>
      <path id="Path_307" data-name="Path 307" d="M488.618,472.843l-6.915-4v7.99Z" transform="translate(-189.222 -114.077)"/>
      <path id="Path_308" data-name="Path 308" d="M488.737,446.456l-7.067-4.077v8.154Z" transform="translate(-189.241 -167.332)"/>
      <path id="Path_309" data-name="Path 309" d="M461.156,441.909l-9.509,5.49,9.509,5.49Z" transform="translate(-71.236 -168.276)"/>
      <path id="Path_310" data-name="Path 310" d="M445.641,447.8,435.1,441.711v12.172Z" transform="translate(-5.876 -168.674)"/>
      <path id="Path_311" data-name="Path 311" d="M418.166,441.3,405.5,448.617l12.669,7.312Z" transform="translate(110.755 -169.493)"/>
      <path id="Path_312" data-name="Path 312" d="M402.032,448.882l-13.358-7.71v15.419Z" transform="translate(177.556 -169.759)"/>
      <path id="Path_313" data-name="Path 313" d="M373.68,441.019l-14.146,8.171,14.146,8.165Z" transform="translate(293.682 -170.067)"/>
      <path id="Path_314" data-name="Path 314" d="M356.647,449.093l-13.889-8.025v16.044Z" transform="translate(361.242 -169.969)"/>
      <path id="Path_315" data-name="Path 315" d="M327.192,441.168l-13.375,7.721,13.375,7.721Z" transform="translate(477.862 -169.766)"/>
      <path id="Path_316" data-name="Path 316" d="M309.963,448.656l-12.756-7.371V456.02Z" transform="translate(545.122 -169.532)"/>
      <path id="Path_317" data-name="Path 317" d="M279.817,441.506l-11.6,6.705,11.6,6.7Z" transform="translate(662.597 -169.087)"/>
      <path id="Path_318" data-name="Path 318" d="M262.707,447.93l-10.887-6.285v12.569Z" transform="translate(729.078 -168.807)"/>
      <path id="Path_319" data-name="Path 319" d="M233.642,441.587l-11.185,6.46,11.185,6.46Z" transform="translate(846.581 -168.924)"/>
      <path id="Path_320" data-name="Path 320" d="M221.3,476.549l-16.529-9.544v19.087Z" transform="translate(912.196 -117.783)"/>
      <path id="Path_321" data-name="Path 321" d="M218.45,479.591,198.6,491.05l19.852,11.459Z" transform="translate(933.636 -92.463)"/>
      <path id="Path_322" data-name="Path 322" d="M206.126,520.04l-26.452-15.273v30.552Z" transform="translate(1002.96 -41.81)"/>
      <path id="Path_323" data-name="Path 323" d="M204.738,517.275,174.554,534.7l30.184,17.429Z" transform="translate(1019.766 -16.646)"/>
      <path id="Path_324" data-name="Path 324" d="M190.393,563.256l-35.657-20.588v41.176Z" transform="translate(1093.803 34.444)"/>
      <path id="Path_325" data-name="Path 325" d="M189.079,555.379,150.753,577.5l38.326,22.13Z" transform="translate(1107.114 60.018)"/>
      <path id="Path_326" data-name="Path 326" d="M175.128,606.707l-45.464-26.254v52.5Z" transform="translate(1184.581 110.464)"/>
      <path id="Path_327" data-name="Path 327" d="M175.477,593.04,126.7,621.2l48.781,28.164Z" transform="translate(1193.174 135.788)"/>
      <path id="Path_328" data-name="Path 328" d="M158.181,649.316l-53.108-30.663v61.326Z" transform="translate(1275.599 187.319)"/>
      <path id="Path_329" data-name="Path 329" d="M156.529,631.85,103.3,662.584l53.226,30.733Z" transform="translate(1282.578 213.872)"/>
      <path id="Path_330" data-name="Path 330" d="M133.893,688.289l-51.327-29.63v59.265Z" transform="translate(1367.673 267.81)"/>
      <path id="Path_331" data-name="Path 331" d="M151.091,685.91l-47.11,27.2,47.11,27.2Z" transform="translate(1285.977 322.637)"/>
      <path id="Path_332" data-name="Path 332" d="M150.158,724.669l-42.806-24.712v49.424Z" transform="translate(1276.753 350.899)"/>
      <path id="Path_333" data-name="Path 333" d="M159.249,728.754l-30.535,17.627,30.535,17.626Z" transform="translate(1203.322 408.836)"/>
      <path id="Path_334" data-name="Path 334" d="M159.23,757.488l-25.045-14.462v28.917Z" transform="translate(1186.865 437.55)"/>
      <path id="Path_335" data-name="Path 335" d="M167.628,771.548l-14.2,8.2,14.2,8.2Z" transform="translate(1120.522 494.933)"/>
      <path id="Path_336" data-name="Path 336" d="M169.232,790.761l-8.481-4.9v9.795Z" transform="translate(1096.846 523.741)"/>
      <path id="Path_337" data-name="Path 337" d="M178.248,813.86l-.4.222.4.233Z" transform="translate(1036.328 580.063)"/>
      <path id="Path_338" data-name="Path 338" d="M529.907,523.488l-1.121-.643v1.3Z" transform="translate(-372.321 -5.437)"/>
      <path id="Path_339" data-name="Path 339" d="M523.1,509.473l-1.91,1.1,1.91,1.109Z" transform="translate(-342.636 -32.341)"/>
      <path id="Path_340" data-name="Path 340" d="M509.463,485.042l-4.275-2.465v4.935Z" transform="translate(-280.802 -86.455)"/>
      <path id="Path_341" data-name="Path 341" d="M503.227,469.154l-5.315,3.072,5.315,3.072Z" transform="translate(-252.652 -113.461)"/>
      <path id="Path_342" data-name="Path 342" d="M482.067,429.114,474.8,433.32l7.272,4.193Z" transform="translate(-161.867 -194.018)"/>
      <path id="Path_343" data-name="Path 343" d="M466.626,433.632l-8.083-4.673V438.3Z" transform="translate(-97.475 -194.33)"/>
      <path id="Path_344" data-name="Path 344" d="M438.219,428.694l-9.468,5.473,9.468,5.467Z" transform="translate(20.661 -194.865)"/>
      <path id="Path_345" data-name="Path 345" d="M422.462,434.439l-10.186-5.881v11.757Z" transform="translate(86.04 -195.137)"/>
      <path id="Path_346" data-name="Path 346" d="M393.852,428.385l-11.079,6.4,11.079,6.389Z" transform="translate(203.516 -195.485)"/>
      <path id="Path_347" data-name="Path 347" d="M377.441,434.826l-11.185-6.46V441.28Z" transform="translate(269.671 -195.524)"/>
      <path id="Path_348" data-name="Path 348" d="M348.01,428.395l-11.033,6.372,11.033,6.366Z" transform="translate(387.29 -195.465)"/>
      <path id="Path_349" data-name="Path 349" d="M331.244,434.631l-10.676-6.168v12.329Z" transform="translate(453.479 -195.329)"/>
      <path id="Path_350" data-name="Path 350" d="M301.248,428.6,291.3,434.35l9.952,5.747Z" transform="translate(571.639 -195.048)"/>
      <path id="Path_351" data-name="Path 351" d="M284.324,434.077l-9.24-5.338v10.677Z" transform="translate(637.391 -194.775)"/>
      <path id="Path_352" data-name="Path 352" d="M254.216,428.866l-8.568,4.953,8.568,4.941Z" transform="translate(756.159 -194.517)"/>
      <path id="Path_353" data-name="Path 353" d="M238.12,433.874l-8.72-5.034v10.069Z" transform="translate(821.194 -194.572)"/>
      <path id="Path_354" data-name="Path 354" d="M217.534,448.242l-11.693-6.752v13.5Z" transform="translate(912.738 -169.119)"/>
      <path id="Path_355" data-name="Path 355" d="M213.164,454.287l-13.906,8.031,13.906,8.031Z" transform="translate(936.937 -143.373)"/>
      <path id="Path_356" data-name="Path 356" d="M200.9,491.011l-19.742-11.4v22.8Z" transform="translate(1003.711 -92.424)"/>
      <path id="Path_357" data-name="Path 357" d="M198,492.284l-22.6,13.048L198,518.387Z" transform="translate(1023.978 -66.924)"/>
      <path id="Path_358" data-name="Path 358" d="M185.317,534.3l-29.138-16.821v33.653Z" transform="translate(1094.533 -16.244)"/>
      <path id="Path_359" data-name="Path 359" d="M183.267,530.188l-31.79,18.357,31.79,18.351Z" transform="translate(1110.747 9.334)"/>
      <path id="Path_360" data-name="Path 360" d="M168.629,577.039,131.513,555.61v42.859Z" transform="translate(1185.513 60.482)"/>
      <path id="Path_361" data-name="Path 361" d="M168.371,568.129,127.58,591.679l40.791,23.544Z" transform="translate(1197.617 85.67)"/>
      <path id="Path_362" data-name="Path 362" d="M154.037,620.821,106.249,593.23v55.182Z" transform="translate(1276.197 136.17)"/>
      <path id="Path_363" data-name="Path 363" d="M154.061,605.941,103.61,635.068,154.061,664.2Z" transform="translate(1284.122 161.745)"/>
      <path id="Path_364" data-name="Path 364" d="M134.112,661.959,82.5,632.161v59.6Z" transform="translate(1367.641 214.496)"/>
      <path id="Path_365" data-name="Path 365" d="M131.941,645.436,80.613,675.072l51.327,29.635Z" transform="translate(1375.507 241.206)"/>
      <path id="Path_366" data-name="Path 366" d="M128.98,672.518l-48,27.714,48,27.714Z" transform="translate(1377.358 295.693)"/>
      <path id="Path_367" data-name="Path 367" d="M129.5,712.56,83.815,686.184v52.753Z" transform="translate(1368.305 323.187)"/>
      <path id="Path_368" data-name="Path 368" d="M141.953,714.323l-36.837,21.271,36.837,21.26Z" transform="translate(1291.692 379.801)"/>
      <path id="Path_369" data-name="Path 369" d="M140.894,746.53,109.986,728.68v35.692Z" transform="translate(1278.085 408.687)"/>
      <path id="Path_370" data-name="Path 370" d="M150.388,757.1l-20.57,11.88,20.57,11.874Z" transform="translate(1208.859 465.875)"/>
      <path id="Path_371" data-name="Path 371" d="M151.474,780.092l-15.086-8.715v17.429Z" transform="translate(1187.985 494.589)"/>
      <path id="Path_372" data-name="Path 372" d="M159.721,799.693l-5.315,3.072,5.315,3.072Z" transform="translate(1125.467 551.559)"/>
      <path id="Path_373" data-name="Path 373" d="M164.116,814.668l-1.91-1.1v2.2Z" transform="translate(1097.582 579.478)"/>
      <path id="Path_374" data-name="Path 374" d="M530.776,497.479l-2.237-1.291v2.587Z" transform="translate(-372.449 -59.07)"/>
      <path id="Path_375" data-name="Path 375" d="M524.2,482.793l-3.147,1.816,3.147,1.823Z" transform="translate(-343.322 -86.021)"/>
      <path id="Path_376" data-name="Path 376" d="M510,458.873,505.035,456v5.741Z" transform="translate(-280.877 -139.928)"/>
      <path id="Path_377" data-name="Path 377" d="M503.539,442.646l-5.666,3.271,5.666,3.271Z" transform="translate(-252.847 -166.793)"/>
      <path id="Path_378" data-name="Path 378" d="M502.921,416.335l-4.97,2.874,4.97,2.862Z" transform="translate(-252.464 -219.728)"/>
      <path id="Path_379" data-name="Path 379" d="M487.912,419.611l-6.01-3.475v6.944Z" transform="translate(-189.117 -220.13)"/>
      <path id="Path_380" data-name="Path 380" d="M458.943,415.94,451.923,420l7.02,4.053Z" transform="translate(-69.852 -220.524)"/>
      <path id="Path_381" data-name="Path 381" d="M443.181,420.137l-7.382-4.264v8.516Z" transform="translate(-5.526 -220.657)"/>
      <path id="Path_382" data-name="Path 382" d="M414.051,415.746l-8.042,4.649,8.042,4.643Z" transform="translate(113.328 -220.915)"/>
      <path id="Path_383" data-name="Path 383" d="M398.144,420.516l-8.363-4.83v9.654Z" transform="translate(178.115 -221.035)"/>
      <path id="Path_384" data-name="Path 384" d="M368.531,415.686l-8.358,4.83,8.358,4.824Z" transform="translate(296.903 -221.035)"/>
      <path id="Path_385" data-name="Path 385" d="M352.311,420.5l-8.323-4.813v9.614Z" transform="translate(361.868 -221.024)"/>
      <path id="Path_386" data-name="Path 386" d="M322.378,415.761l-7.961,4.6,7.961,4.59Z" transform="translate(480.872 -220.884)"/>
      <path id="Path_387" data-name="Path 387" d="M306.115,420.309l-7.815-4.521v9.03Z" transform="translate(545.675 -220.829)"/>
      <path id="Path_388" data-name="Path 388" d="M275.673,415.957l-6.945,4.012,6.945,4.007Z" transform="translate(665.188 -220.489)"/>
      <path id="Path_389" data-name="Path 389" d="M259.365,419.833l-6.595-3.808v7.61Z" transform="translate(729.558 -220.352)"/>
      <path id="Path_390" data-name="Path 390" d="M209.952,428.536l-10.3,5.946,10.3,5.94Z" transform="translate(938.951 -195.181)"/>
      <path id="Path_391" data-name="Path 391" d="M196.725,462.5l-14.38-8.306v16.611Z" transform="translate(1004.311 -143.556)"/>
      <path id="Path_392" data-name="Path 392" d="M192.771,466.967l-16.727,9.661,16.727,9.66Z" transform="translate(1027.248 -117.862)"/>
      <path id="Path_393" data-name="Path 393" d="M179.6,505.02,157.8,492.44v25.173Z" transform="translate(1095.354 -66.612)"/>
      <path id="Path_394" data-name="Path 394" d="M176.707,505.161l-24.414,14.088,24.414,14.1Z" transform="translate(1114.848 -41.018)"/>
      <path id="Path_395" data-name="Path 395" d="M163.3,547.96l-30.278-17.481V565.44Z" transform="translate(1186.284 9.919)"/>
      <path id="Path_396" data-name="Path 396" d="M161.084,543.254l-32.6,18.824,32.6,18.824Z" transform="translate(1202.171 35.622)"/>
      <path id="Path_397" data-name="Path 397" d="M147.4,591.094,108.136,568.42v45.336Z" transform="translate(1277.149 86.255)"/>
      <path id="Path_398" data-name="Path 398" d="M147.382,580.938l-42.94,24.793,42.94,24.787Z" transform="translate(1288.296 111.439)"/>
      <path id="Path_399" data-name="Path 399" d="M131.919,634.429l-48.793-28.17V662.6Z" transform="translate(1367.959 162.384)"/>
      <path id="Path_400" data-name="Path 400" d="M130.854,619.23,80.747,648.153l50.106,28.923Z" transform="translate(1376.191 188.481)"/>
      <path id="Path_401" data-name="Path 401" d="M109.31,674.237,60.144,645.851v56.777Z" transform="translate(1459.791 242.04)"/>
      <path id="Path_402" data-name="Path 402" d="M105.4,659.445,58.166,686.709,105.4,713.984Z" transform="translate(1469.66 269.39)"/>
      <path id="Path_403" data-name="Path 403" d="M106.509,699.3,60.94,672.984v52.624Z" transform="translate(1460.192 296.63)"/>
      <path id="Path_404" data-name="Path 404" d="M121.594,700.555,81.9,723.468l39.693,22.919Z" transform="translate(1381.976 352.101)"/>
      <path id="Path_405" data-name="Path 405" d="M121.423,735,86.111,714.616v40.773Z" transform="translate(1369.466 380.39)"/>
      <path id="Path_406" data-name="Path 406" d="M131.565,743.005,106.41,757.531l25.155,14.52Z" transform="translate(1298.184 437.507)"/>
      <path id="Path_407" data-name="Path 407" d="M132.677,768.9l-20.355-11.752v23.5Z" transform="translate(1279.265 465.961)"/>
      <path id="Path_408" data-name="Path 408" d="M141,785.572l-10.017,5.782L141,797.136Z" transform="translate(1214.729 523.149)"/>
      <path id="Path_409" data-name="Path 409" d="M144.379,803.015l-5.975-3.446v6.892Z" transform="translate(1189.006 551.309)"/>
      <path id="Path_410" data-name="Path 410" d="M155.009,827.155h-.017l.017.012Z" transform="translate(1128.415 606.811)"/>
      <path id="Path_411" data-name="Path 411" d="M531.458,471.376l-3.113-1.8v3.6Z" transform="translate(-372.546 -112.61)"/>
      <path id="Path_412" data-name="Path 412" d="M524.808,456.218l-3.831,2.214,3.831,2.207Z" transform="translate(-343.702 -139.487)"/>
      <path id="Path_413" data-name="Path 413" d="M510,432.43l-4.964-2.874V435.3Z" transform="translate(-280.877 -193.128)"/>
      <path id="Path_414" data-name="Path 414" d="M509.194,405.584l-3.931-2.272v4.544Z" transform="translate(-280.761 -245.931)"/>
      <path id="Path_415" data-name="Path 415" d="M480.02,403.114l-4.97,2.868,4.97,2.868Z" transform="translate(-160.584 -246.329)"/>
      <path id="Path_416" data-name="Path 416" d="M464.44,406.1l-5.274-3.043v6.086Z" transform="translate(-97.164 -246.446)"/>
      <path id="Path_417" data-name="Path 417" d="M434.49,403.056l-5.275,3.043,5.275,3.043Z" transform="translate(22.995 -246.446)"/>
      <path id="Path_418" data-name="Path 418" d="M418.8,406.177l-5.478-3.159v6.325Z" transform="translate(86.562 -246.524)"/>
      <path id="Path_419" data-name="Path 419" d="M388.965,403l-5.584,3.224,5.584,3.23Z" transform="translate(206.568 -246.567)"/>
      <path id="Path_420" data-name="Path 420" d="M373.051,406.2,367.5,403v6.407Z" transform="translate(270.305 -246.551)"/>
      <path id="Path_421" data-name="Path 421" d="M343.133,403l-5.549,3.2,5.549,3.206Z" transform="translate(390.339 -246.551)"/>
      <path id="Path_422" data-name="Path 422" d="M326.978,406.068l-5.2-3v6Z" transform="translate(454.095 -246.414)"/>
      <path id="Path_423" data-name="Path 423" d="M297.02,403.071l-5.2,3,5.2,3Z" transform="translate(574.284 -246.414)"/>
      <path id="Path_424" data-name="Path 424" d="M280.9,405.935l-4.847-2.8v5.6Z" transform="translate(637.885 -246.282)"/>
      <path id="Path_425" data-name="Path 425" d="M193.932,434.678l-10.794-6.238v12.475Z" transform="translate(1004.715 -195.376)"/>
      <path id="Path_426" data-name="Path 426" d="M189.39,441.254l-12.925,7.465,12.925,7.464Z" transform="translate(1029.362 -169.595)"/>
      <path id="Path_427" data-name="Path 427" d="M175.453,476.526l-16.47-9.509v19.017Z" transform="translate(1095.951 -117.76)"/>
      <path id="Path_428" data-name="Path 428" d="M171.414,479.857l-18.462,10.659,18.462,10.665Z" transform="translate(1118.154 -91.928)"/>
      <path id="Path_429" data-name="Path 429" d="M157.487,518.632l-22.807-13.165v26.341Z" transform="translate(1187.118 -40.402)"/>
      <path id="Path_430" data-name="Path 430" d="M154.851,518.155l-25.588,14.771L154.851,547.7Z" transform="translate(1206.067 -14.874)"/>
      <path id="Path_431" data-name="Path 431" d="M140.476,561.22,110.1,543.68v35.079Z" transform="translate(1278.148 36.48)"/>
      <path id="Path_432" data-name="Path 432" d="M138.906,556.32,105.5,575.611,138.906,594.9Z" transform="translate(1293.595 61.91)"/>
      <path id="Path_433" data-name="Path 433" d="M125.817,604.963,84.862,581.319v47.286Z" transform="translate(1368.834 112.208)"/>
      <path id="Path_434" data-name="Path 434" d="M125.748,593.885,81.383,619.5l44.365,25.617Z" transform="translate(1379.38 137.489)"/>
      <path id="Path_435" data-name="Path 435" d="M108.569,647.427,60.355,619.591v55.673Z" transform="translate(1459.896 189.207)"/>
      <path id="Path_436" data-name="Path 436" d="M106.333,632.8,58.049,660.672l48.284,27.877Z" transform="translate(1469.076 215.784)"/>
      <path id="Path_437" data-name="Path 437" d="M83.044,685.792,38.2,659.9v51.789Z" transform="translate(1552.15 270.307)"/>
      <path id="Path_438" data-name="Path 438" d="M98.932,687.279,58.97,710.355l39.961,23.076Z" transform="translate(1473.703 325.391)"/>
      <path id="Path_439" data-name="Path 439" d="M99.322,722.18l-36.34-20.985v41.971Z" transform="translate(1461.228 353.388)"/>
      <path id="Path_440" data-name="Path 440" d="M111.1,729.258,83.206,745.367l27.895,16.1Z" transform="translate(1388.538 409.85)"/>
      <path id="Path_441" data-name="Path 441" d="M112.641,757.1,88.607,743.22v27.749Z" transform="translate(1370.732 437.94)"/>
      <path id="Path_442" data-name="Path 442" d="M122.574,771.385l-15.045,8.691,15.045,8.691Z" transform="translate(1303.805 494.605)"/>
      <path id="Path_443" data-name="Path 443" d="M124.545,791.315l-9.911-5.724v11.448Z" transform="translate(1280.434 523.187)"/>
      <path id="Path_444" data-name="Path 444" d="M134.385,813.441l-2.576,1.484,2.576,1.489Z" transform="translate(1218.864 579.22)"/>
      <path id="Path_445" data-name="Path 445" d="M139.737,827.155h-.012v.012Z" transform="translate(1189.671 606.811)"/>
      <path id="Path_446" data-name="Path 446" d="M531.722,445.063l-3.452-1.992v3.977Z" transform="translate(-372.582 -165.939)"/>
      <path id="Path_447" data-name="Path 447" d="M524.9,429.754l-3.931,2.278L524.9,434.3Z" transform="translate(-343.762 -192.73)"/>
      <path id="Path_448" data-name="Path 448" d="M501.394,390.223l-3.253,1.875,3.253,1.875Z" transform="translate(-251.509 -272.266)"/>
      <path id="Path_449" data-name="Path 449" d="M486.026,392.23l-3.587-2.074V394.3Z" transform="translate(-188.849 -272.398)"/>
      <path id="Path_450" data-name="Path 450" d="M455.895,390.157,452.3,392.23l3.592,2.073Z" transform="translate(-67.949 -272.398)"/>
      <path id="Path_451" data-name="Path 451" d="M440.2,392.215l-3.557-2.05v4.1Z" transform="translate(-5.1 -272.383)"/>
      <path id="Path_452" data-name="Path 452" d="M409.755,390.228l-3.212,1.858,3.212,1.857Z" transform="translate(116.018 -272.254)"/>
      <path id="Path_453" data-name="Path 453" d="M394.133,392.086l-3.212-1.858v3.715Z" transform="translate(178.692 -272.254)"/>
      <path id="Path_454" data-name="Path 454" d="M363.918,390.238l-3.171,1.828,3.171,1.828Z" transform="translate(299.787 -272.234)"/>
      <path id="Path_455" data-name="Path 455" d="M348.3,392.066l-3.171-1.828v3.656Z" transform="translate(362.445 -272.234)"/>
      <path id="Path_456" data-name="Path 456" d="M318.388,390.18l-3.475,2,3.475,2Z" transform="translate(483.366 -272.351)"/>
      <path id="Path_457" data-name="Path 457" d="M302.768,392.2l-3.516-2.027v4.054Z" transform="translate(546.155 -272.367)"/>
      <path id="Path_458" data-name="Path 458" d="M172.9,448.82,159.708,441.2V456.43Z" transform="translate(1096.324 -169.696)"/>
      <path id="Path_459" data-name="Path 459" d="M168.048,454.137l-14.677,8.481,14.677,8.48Z" transform="translate(1120.259 -143.673)"/>
      <path id="Path_460" data-name="Path 460" d="M153.193,490.067,135.9,480.08v19.974Z" transform="translate(1187.738 -91.48)"/>
      <path id="Path_461" data-name="Path 461" d="M148.69,493.041l-18.661,10.77,18.661,10.776Z" transform="translate(1209.921 -65.402)"/>
      <path id="Path_462" data-name="Path 462" d="M134.836,531.974l-23.128-13.345v26.7Z" transform="translate(1278.957 -13.922)"/>
      <path id="Path_463" data-name="Path 463" d="M131.893,531.39l-25.524,14.736,25.524,14.736Z" transform="translate(1297.979 11.753)"/>
      <path id="Path_464" data-name="Path 464" d="M117.831,574.558l-30.7-17.714v35.435Z" transform="translate(1369.98 62.964)"/>
      <path id="Path_465" data-name="Path 465" d="M117.163,569.293,82.452,589.338l34.711,20.034Z" transform="translate(1384.748 88.011)"/>
      <path id="Path_466" data-name="Path 466" d="M103.934,618.691l-42.263-24.4v48.8Z" transform="translate(1460.565 138.301)"/>
      <path id="Path_467" data-name="Path 467" d="M103.472,606.973l-45.066,26.02,45.066,26.02Z" transform="translate(1470.862 163.82)"/>
      <path id="Path_468" data-name="Path 468" d="M84.286,659.966,37.847,633.151v53.634Z" transform="translate(1551.971 216.49)"/>
      <path id="Path_469" data-name="Path 469" d="M80.763,646.6,35.481,672.739l45.282,26.143Z" transform="translate(1562.619 243.539)"/>
      <path id="Path_470" data-name="Path 470" d="M75.974,674.07l-39.9,23.042,39.9,23.035Z" transform="translate(1565.615 298.815)"/>
      <path id="Path_471" data-name="Path 471" d="M76.6,709.045,40.031,687.931v42.227Z" transform="translate(1553.076 326.702)"/>
      <path id="Path_472" data-name="Path 472" d="M89.405,715.777l-29.25,16.891,29.25,16.88Z" transform="translate(1479.661 382.727)"/>
      <path id="Path_473" data-name="Path 473" d="M90.41,744.209,65.517,729.834v28.742Z" transform="translate(1462.507 411.009)"/>
      <path id="Path_474" data-name="Path 474" d="M102.094,757.644,84.327,767.9l17.767,10.256Z" transform="translate(1394.169 466.959)"/>
      <path id="Path_475" data-name="Path 475" d="M104.624,779.569l-13.737-7.932V787.5Z" transform="translate(1371.88 495.113)"/>
      <path id="Path_476" data-name="Path 476" d="M114.2,799.635l-5.624,3.248,5.624,3.247Z" transform="translate(1309.04 551.442)"/>
      <path id="Path_477" data-name="Path 477" d="M118.652,814.835l-2.342-1.349v2.7Z" transform="translate(1281.282 579.31)"/>
      <path id="Path_478" data-name="Path 478" d="M531.567,418.546l-3.253-1.881v3.755Z" transform="translate(-372.562 -219.065)"/>
      <path id="Path_479" data-name="Path 479" d="M524.169,403.471l-3.113,1.793,3.113,1.8Z" transform="translate(-343.302 -245.611)"/>
      <path id="Path_480" data-name="Path 480" d="M522.8,377.319l-1.576.917,1.576.911Z" transform="translate(-342.451 -298.226)"/>
      <path id="Path_481" data-name="Path 481" d="M507.621,378.361l-1.91-1.1v2.208Z" transform="translate(-280.538 -298.351)"/>
      <path id="Path_482" data-name="Path 482" d="M477.766,377.156l-2.436,1.408,2.436,1.407Z" transform="translate(-159.178 -298.554)"/>
      <path id="Path_483" data-name="Path 483" d="M462.079,378.486l-2.243-1.291v2.581Z" transform="translate(-96.824 -298.475)"/>
      <path id="Path_484" data-name="Path 484" d="M431.2,377.319l-1.577.917,1.577.911Z" transform="translate(25.051 -298.226)"/>
      <path id="Path_485" data-name="Path 485" d="M415.732,378.217l-1.542-.888V379.1Z" transform="translate(87.005 -298.207)"/>
      <path id="Path_486" data-name="Path 486" d="M385.334,377.335l-1.5.87,1.5.87Z" transform="translate(208.839 -298.195)"/>
      <path id="Path_487" data-name="Path 487" d="M369.906,378.205l-1.507-.87v1.741Z" transform="translate(270.752 -298.195)"/>
      <path id="Path_488" data-name="Path 488" d="M339.829,377.273l-1.834,1.057,1.834,1.057Z" transform="translate(392.404 -298.32)"/>
      <path id="Path_489" data-name="Path 489" d="M324.613,378.463l-2.161-1.256v2.506Z" transform="translate(454.433 -298.452)"/>
      <path id="Path_490" data-name="Path 490" d="M165.752,428.191l-12.1,6.986,12.1,6.985Z" transform="translate(1121.697 -195.875)"/>
      <path id="Path_491" data-name="Path 491" d="M150.961,462.517l-14.426-8.329v16.658Z" transform="translate(1188.054 -143.572)"/>
      <path id="Path_492" data-name="Path 492" d="M145.194,467.351l-14.73,8.5,14.73,8.5Z" transform="translate(1212.109 -117.089)"/>
      <path id="Path_493" data-name="Path 493" d="M129.594,502.937,113.2,493.475V512.4Z" transform="translate(1279.708 -64.528)"/>
      <path id="Path_494" data-name="Path 494" d="M125.311,506.365l-18.123,10.461,18.123,10.466Z" transform="translate(1302.096 -38.595)"/>
      <path id="Path_495" data-name="Path 495" d="M111.627,545.049,88.9,531.925v26.248Z" transform="translate(1370.875 12.83)"/>
      <path id="Path_496" data-name="Path 496" d="M108.411,544.737,83.542,559.094l24.869,14.356Z" transform="translate(1390.217 38.607)"/>
      <path id="Path_497" data-name="Path 497" d="M96.307,588.476,63.84,569.721v37.5Z" transform="translate(1461.661 88.873)"/>
      <path id="Path_498" data-name="Path 498" d="M95.992,582.142,59.337,603.308l36.656,21.161Z" transform="translate(1475.539 113.862)"/>
      <path id="Path_499" data-name="Path 499" d="M82.021,632.4l-43.53-25.132v50.258Z" transform="translate(1552.297 164.413)"/>
      <path id="Path_500" data-name="Path 500" d="M80.57,620.2,35.5,646.21,80.57,672.224Z" transform="translate(1562.742 190.424)"/>
      <path id="Path_501" data-name="Path 501" d="M59.494,672.247,15.484,646.84v50.819Z" transform="translate(1644.118 244.03)"/>
      <path id="Path_502" data-name="Path 502" d="M54.58,660.527,12.989,684.532,54.58,708.548Z" transform="translate(1656.548 271.567)"/>
      <path id="Path_503" data-name="Path 503" d="M54.8,696.37,16.817,674.438V718.3Z" transform="translate(1644.794 299.556)"/>
      <path id="Path_504" data-name="Path 504" d="M66.64,702.525,37.238,719.5l29.4,16.978Z" transform="translate(1571.451 356.064)"/>
      <path id="Path_505" data-name="Path 505" d="M68.009,731.232,42.474,716.491v29.484Z" transform="translate(1554.312 384.163)"/>
      <path id="Path_506" data-name="Path 506" d="M79.849,744.281l-18.5,10.683,18.5,10.677Z" transform="translate(1485.631 440.074)"/>
      <path id="Path_507" data-name="Path 507" d="M82.855,766.909l-15.191-8.772v17.545Z" transform="translate(1463.596 467.951)"/>
      <path id="Path_508" data-name="Path 508" d="M93.3,785.983l-7.879,4.544,7.879,4.55Z" transform="translate(1399.669 523.975)"/>
      <path id="Path_509" data-name="Path 509" d="M97.793,802.629l-4.965-2.868V805.5Z" transform="translate(1372.865 551.696)"/>
      <path id="Path_510" data-name="Path 510" d="M109.2,827.155h-.011l.011.012Z" transform="translate(1312.164 606.811)"/>
      <path id="Path_511" data-name="Path 511" d="M530.671,391.653l-2.1-1.209v2.424Z" transform="translate(-372.431 -271.821)"/>
      <path id="Path_512" data-name="Path 512" d="M529.27,364.518l-.3-.175v.356Z" transform="translate(-372.227 -324.334)"/>
      <path id="Path_513" data-name="Path 513" d="M499.581,364.168l-1.215.7,1.215.707Z" transform="translate(-250.373 -324.686)"/>
      <path id="Path_514" data-name="Path 514" d="M484.211,364.881l-1.256-.718V365.6Z" transform="translate(-188.588 -324.697)"/>
      <path id="Path_515" data-name="Path 515" d="M453.493,364.23l-.893.514.893.519Z" transform="translate(-66.441 -324.56)"/>
      <path id="Path_516" data-name="Path 516" d="M437.883,364.619l-.578-.328v.666Z" transform="translate(-4.766 -324.436)"/>
      <path id="Path_517" data-name="Path 517" d="M407.142,364.35l-.274.152.274.163Z" transform="translate(117.649 -324.319)"/>
      <path id="Path_518" data-name="Path 518" d="M391.84,364.5l-.268-.152v.315Z" transform="translate(179.022 -324.319)"/>
      <path id="Path_519" data-name="Path 519" d="M361.7,364.273l-.672.385.672.391Z" transform="translate(301.174 -324.475)"/>
      <path id="Path_520" data-name="Path 520" d="M346.572,364.767l-.952-.549v1.1Z" transform="translate(362.696 -324.584)"/>
      <path id="Path_521" data-name="Path 521" d="M149.433,435.318l-12.464-7.2v14.386Z" transform="translate(1188.274 -196.016)"/>
      <path id="Path_522" data-name="Path 522" d="M143.818,441.2l-13.182,7.617,13.182,7.61Z" transform="translate(1212.964 -169.696)"/>
      <path id="Path_523" data-name="Path 523" d="M126.914,475.168l-12.955-7.476v14.952Z" transform="translate(1280.098 -116.402)"/>
      <path id="Path_524" data-name="Path 524" d="M120.948,480.863l-13.218,7.628,13.218,7.628Z" transform="translate(1304.824 -89.904)"/>
      <path id="Path_525" data-name="Path 525" d="M105.869,515.753,90.532,506.9v17.715Z" transform="translate(1371.703 -37.523)"/>
      <path id="Path_526" data-name="Path 526" d="M101.741,519.732,84.372,529.754l17.369,10.034Z" transform="translate(1394.387 -11.703)"/>
      <path id="Path_527" data-name="Path 527" d="M88.217,558.017,66.139,545.272V570.76Z" transform="translate(1462.825 39.683)"/>
      <path id="Path_528" data-name="Path 528" d="M86.113,557.829,60.566,572.576l25.547,14.748Z" transform="translate(1481.714 64.946)"/>
      <path id="Path_529" data-name="Path 529" d="M75.39,602.676,40.376,582.456V622.9Z" transform="translate(1553.25 114.494)"/>
      <path id="Path_530" data-name="Path 530" d="M75.226,594.9,36.17,617.454,75.226,640Z" transform="translate(1566.083 139.538)"/>
      <path id="Path_531" data-name="Path 531" d="M59.535,645.828,15.473,620.386v50.883Z" transform="translate(1644.111 190.807)"/>
      <path id="Path_532" data-name="Path 532" d="M56.876,633.588,12.7,659.088l44.172,25.506Z" transform="translate(1655.109 217.368)"/>
      <path id="Path_533" data-name="Path 533" d="M34.323,684.344-6.771,660.62v47.449Z" transform="translate(1736.32 271.754)"/>
      <path id="Path_534" data-name="Path 534" d="M46,688.819,14.057,707.258,46,725.7Z" transform="translate(1661.91 328.489)"/>
      <path id="Path_535" data-name="Path 535" d="M46.105,718.5,19.291,703.023v30.961Z" transform="translate(1646.041 357.067)"/>
      <path id="Path_536" data-name="Path 536" d="M56.72,731.108,38.473,741.646l18.246,10.53Z" transform="translate(1577.651 413.572)"/>
      <path id="Path_537" data-name="Path 537" d="M59.959,753.688l-15.2-8.773V762.46Z" transform="translate(1555.47 441.351)"/>
      <path id="Path_538" data-name="Path 538" d="M71.668,772.486l-9.3,5.374,9.3,5.373Z" transform="translate(1490.746 496.821)"/>
      <path id="Path_539" data-name="Path 539" d="M75.793,789.848l-6.121-3.528v7.061Z" transform="translate(1464.607 524.654)"/>
      <path id="Path_540" data-name="Path 540" d="M87.7,813.631l-1.577.911,1.577.911Z" transform="translate(1403.17 579.602)"/>
      <path id="Path_541" data-name="Path 541" d="M506.147,351.179h-.017v.012Z" transform="translate(-280.326 -350.818)"/>
      <path id="Path_542" data-name="Path 542" d="M475.834,351.129l-.263.152.263.158Z" transform="translate(-157.97 -350.919)"/>
      <path id="Path_543" data-name="Path 543" d="M338.763,351.059l-.636.362.636.374Z" transform="translate(393.073 -351.059)"/>
      <path id="Path_544" data-name="Path 544" d="M126,448.273l-11.781-6.8v13.6Z" transform="translate(1280.23 -169.15)"/>
      <path id="Path_545" data-name="Path 545" d="M119.3,454.775l-11.36,6.559,11.36,6.553Z" transform="translate(1305.857 -142.39)"/>
      <path id="Path_546" data-name="Path 546" d="M102.278,487.531,91.554,481.34v12.382Z" transform="translate(1372.217 -88.944)"/>
      <path id="Path_547" data-name="Path 547" d="M96.094,494.507l-11.021,6.355,11.021,6.366Z" transform="translate(1397.92 -62.453)"/>
      <path id="Path_548" data-name="Path 548" d="M82.213,528.6l-14.368-8.294V536.9Z" transform="translate(1463.689 -10.548)"/>
      <path id="Path_549" data-name="Path 549" d="M78.357,533.056,61.53,542.774l16.827,9.713Z" transform="translate(1486.568 15.104)"/>
      <path id="Path_550" data-name="Path 550" d="M66.221,571.687,42.982,558.27V585.1Z" transform="translate(1554.569 65.835)"/>
      <path id="Path_551" data-name="Path 551" d="M65.789,570.5,37.345,586.919l28.444,16.424Z" transform="translate(1571.981 90.43)"/>
      <path id="Path_552" data-name="Path 552" d="M54.833,617.053,16.811,595.1V639Z" transform="translate(1644.783 139.939)"/>
      <path id="Path_553" data-name="Path 553" d="M54.331,607.692,13.02,631.545l41.311,23.847Z" transform="translate(1656.703 165.267)"/>
      <path id="Path_554" data-name="Path 554" d="M36.543,659-7.4,633.63v50.744Z" transform="translate(1735.998 217.453)"/>
      <path id="Path_555" data-name="Path 555" d="M33.425,646.929l-43.553,25.138,43.553,25.15Z" transform="translate(1747.328 244.21)"/>
      <path id="Path_556" data-name="Path 556" d="M26.953,674.764-9.323,695.715l36.276,20.944Z" transform="translate(1751.377 300.211)"/>
      <path id="Path_557" data-name="Path 557" d="M26.225,706.778l-30.692-17.72V724.5Z" transform="translate(1737.48 328.969)"/>
      <path id="Path_558" data-name="Path 558" d="M35.793,717.461,15.327,729.281l20.466,11.81Z" transform="translate(1668.291 386.114)"/>
      <path id="Path_559" data-name="Path 559" d="M37.627,740.752l-15.927-9.2v18.392Z" transform="translate(1647.265 414.465)"/>
      <path id="Path_560" data-name="Path 560" d="M49.084,759.2l-9.66,5.578,9.66,5.572Z" transform="translate(1582.425 470.084)"/>
      <path id="Path_561" data-name="Path 561" d="M53.438,776.9l-6.822-3.937v7.873Z" transform="translate(1556.408 497.781)"/>
      <path id="Path_562" data-name="Path 562" d="M65.388,800.284l-2.243,1.292,2.243,1.3Z" transform="translate(1494.672 552.749)"/>
      <path id="Path_563" data-name="Path 563" d="M71.5,814.168l-.607-.351v.706Z" transform="translate(1465.227 579.977)"/>
      <path id="Path_564" data-name="Path 564" d="M93.695,468.58l-8.323,4.8,8.323,4.8Z" transform="translate(1399.419 -114.616)"/>
      <path id="Path_565" data-name="Path 565" d="M77.6,499.871,69.157,495v9.754Z" transform="translate(1464.351 -61.462)"/>
      <path id="Path_566" data-name="Path 566" d="M71.9,508.007l-9.561,5.514,9.561,5.525Z" transform="translate(1490.605 -35.291)"/>
      <path id="Path_567" data-name="Path 567" d="M59.151,541.74,44.993,533.57v16.342Z" transform="translate(1555.583 16.138)"/>
      <path id="Path_568" data-name="Path 568" d="M55.825,546.2l-17.241,9.953L55.825,566.1Z" transform="translate(1578.212 41.548)"/>
      <path id="Path_569" data-name="Path 569" d="M46.318,586.4,19.229,570.755v31.282Z" transform="translate(1646.015 90.952)"/>
      <path id="Path_570" data-name="Path 570" d="M46.642,582.906,13.976,601.771l32.666,18.853Z" transform="translate(1661.512 115.399)"/>
      <path id="Path_571" data-name="Path 571" d="M34.224,631.413-6.742,607.758v47.309Z" transform="translate(1736.332 165.4)"/>
      <path id="Path_572" data-name="Path 572" d="M33.466,620.475l-43.6,25.173,43.6,25.173Z" transform="translate(1747.305 190.986)"/>
      <path id="Path_573" data-name="Path 573" d="M14.148,672.473l-44.593-25.746v51.491Z" transform="translate(1827.797 243.804)"/>
      <path id="Path_574" data-name="Path 574" d="M9.538,660.364l-42.444,24.5L9.538,709.366Z" transform="translate(1839.819 271.239)"/>
      <path id="Path_575" data-name="Path 575" d="M8.18,695.964-28.75,674.64v42.642Z" transform="translate(1828.661 299.961)"/>
      <path id="Path_576" data-name="Path 576" d="M16.341,703.5-8,717.549,16.341,731.6Z" transform="translate(1758.012 358.019)"/>
      <path id="Path_577" data-name="Path 577" d="M17.142,728.727-1.886,717.736v21.972Z" transform="translate(1738.789 386.668)"/>
      <path id="Path_578" data-name="Path 578" d="M27.139,745.768l-10.736,6.2,10.736,6.2Z" transform="translate(1673.703 443.067)"/>
      <path id="Path_579" data-name="Path 579" d="M31.087,763.952l-7.528-4.346V768.3Z" transform="translate(1648.203 470.908)"/>
      <path id="Path_580" data-name="Path 580" d="M42.576,787.042,40.234,788.4l2.342,1.354Z" transform="translate(1586.491 526.106)"/>
      <path id="Path_581" data-name="Path 581" d="M48.85,801.072l-.929-.538v1.075Z" transform="translate(1557.065 553.252)"/>
      <path id="Path_582" data-name="Path 582" d="M75.648,472.461l-5.934-3.423v6.845Z" transform="translate(1464.63 -113.695)"/>
      <path id="Path_583" data-name="Path 583" d="M68.4,482.317l-5.625,3.247,5.625,3.248Z" transform="translate(1492.791 -86.978)"/>
      <path id="Path_584" data-name="Path 584" d="M53.588,512.538,46.573,508.5v8.1Z" transform="translate(1556.386 -34.308)"/>
      <path id="Path_585" data-name="Path 585" d="M48.529,521.329l-9.035,5.21,9.035,5.221Z" transform="translate(1582.769 -8.488)"/>
      <path id="Path_586" data-name="Path 586" d="M37.05,555.359l-15.186-8.766v17.533Z" transform="translate(1647.345 42.341)"/>
      <path id="Path_587" data-name="Path 587" d="M35.118,558.947,15.411,570.325l19.707,11.383Z" transform="translate(1668.715 67.196)"/>
      <path id="Path_588" data-name="Path 588" d="M27.17,601.475-4.737,583.053V619.9Z" transform="translate(1737.347 115.696)"/>
      <path id="Path_589" data-name="Path 589" d="M27.66,595.285l-37.071,21.4,37.071,21.4Z" transform="translate(1750.932 140.306)"/>
      <path id="Path_590" data-name="Path 590" d="M14.184,646.05l-44.64-25.775v51.549Z" transform="translate(1827.797 190.584)"/>
      <path id="Path_591" data-name="Path 591" d="M12.618,633.254l-45.907,26.505,45.907,26.5Z" transform="translate(1837.896 216.696)"/>
      <path id="Path_592" data-name="Path 592" d="M-9.322,685.414l-43.863-25.325v50.65Z" transform="translate(1919.761 270.685)"/>
      <path id="Path_593" data-name="Path 593" d="M-.441,688.955l-31.224,18.03,31.224,18.03Z" transform="translate(1846.06 328.762)"/>
      <path id="Path_594" data-name="Path 594" d="M-1.62,717.549-25.963,703.5v28.1Z" transform="translate(1830.068 358.019)"/>
      <path id="Path_595" data-name="Path 595" d="M6.3,732.1l-13.054,7.541L6.3,747.178Z" transform="translate(1764.291 415.573)"/>
      <path id="Path_596" data-name="Path 596" d="M9.57,751.418l-9.3-5.374v10.741Z" transform="translate(1739.878 443.621)"/>
      <path id="Path_597" data-name="Path 597" d="M20.787,773.582l-3.592,2.074,3.592,2.073Z" transform="translate(1677.672 499.026)"/>
      <path id="Path_598" data-name="Path 598" d="M26.2,787.975l-1.25-.724V788.7Z" transform="translate(1648.903 526.527)"/>
      <path id="Path_599" data-name="Path 599" d="M50.659,484.648l-3.254-1.875v3.755Z" transform="translate(1556.81 -86.061)"/>
      <path id="Path_600" data-name="Path 600" d="M43.817,495.9l-3.738,2.155,3.738,2.161Z" transform="translate(1585.717 -59.648)"/>
      <path id="Path_601" data-name="Path 601" d="M30.719,525.775l-7.055-4.065v8.142Z" transform="translate(1648.255 -7.723)"/>
      <path id="Path_602" data-name="Path 602" d="M26.624,534.338,16.468,540.2l10.157,5.858Z" transform="translate(1674.025 17.683)"/>
      <path id="Path_603" data-name="Path 603" d="M16.8,569.9-1.79,559.161v21.476Z" transform="translate(1738.838 67.626)"/>
      <path id="Path_604" data-name="Path 604" d="M17.1,571.116-8.1,585.67,17.1,600.22Z" transform="translate(1757.534 91.678)"/>
      <path id="Path_605" data-name="Path 605" d="M8.709,616.9-28.9,595.181v43.425Z" transform="translate(1828.582 140.095)"/>
      <path id="Path_606" data-name="Path 606" d="M9.48,607.489-32.9,631.955,9.48,656.421Z" transform="translate(1839.86 164.858)"/>
      <path id="Path_607" data-name="Path 607" d="M-6.615,660.309l-47.338-27.328v54.662Z" transform="translate(1919.367 216.146)"/>
      <path id="Path_608" data-name="Path 608" d="M-8.916,646.181-56.36,673.574l47.443,27.392Z" transform="translate(1928.916 242.704)"/>
      <path id="Path_609" data-name="Path 609" d="M-15.757,674.1l-39.751,22.954L-15.757,720Z" transform="translate(1933.193 298.873)"/>
      <path id="Path_610" data-name="Path 610" d="M-18.249,707.438l-32.4-18.708v37.416Z" transform="translate(1921.043 328.309)"/>
      <path id="Path_611" data-name="Path 611" d="M-11.947,717.879l-18.287,10.56,18.287,10.555Z" transform="translate(1853.256 386.956)"/>
      <path id="Path_612" data-name="Path 612" d="M-10.7,739.5l-12.686-7.33v14.654Z" transform="translate(1831.379 415.714)"/>
      <path id="Path_613" data-name="Path 613" d="M-.763,760.068l-5.111,2.955,5.111,2.949Z" transform="translate(1768.702 471.836)"/>
      <path id="Path_614" data-name="Path 614" d="M4.331,775.262l-2.575-1.484v2.967Z" transform="translate(1740.632 499.42)"/>
      <path id="Path_615" data-name="Path 615" d="M42.187,469.81l-1.9,1.1,1.9,1.1Z" transform="translate(1586.734 -112.142)"/>
      <path id="Path_616" data-name="Path 616" d="M26.772,497.381l-1.985-1.145v2.3Z" transform="translate(1648.821 -58.973)"/>
      <path id="Path_617" data-name="Path 617" d="M20.376,509.239l-3.13,1.805,3.13,1.81Z" transform="translate(1677.931 -32.814)"/>
      <path id="Path_618" data-name="Path 618" d="M9.116,539.646.4,534.611v10.064Z" transform="translate(1739.941 18.233)"/>
      <path id="Path_619" data-name="Path 619" d="M5.922,547.083l-12.628,7.29,12.628,7.295Z" transform="translate(1764.523 43.327)"/>
      <path id="Path_620" data-name="Path 620" d="M-1.124,585.585-26.1,571.158V600Z" transform="translate(1829.999 91.764)"/>
      <path id="Path_621" data-name="Path 621" d="M.292,583.026l-32.048,18.5,32.048,18.5Z" transform="translate(1845.602 115.641)"/>
      <path id="Path_622" data-name="Path 622" d="M-9.763,632.31l-43.3-25v50Z" transform="translate(1919.822 164.503)"/>
      <path id="Path_623" data-name="Path 623" d="M-9.119,619.781l-47.215,27.264,47.215,27.264Z" transform="translate(1929.043 189.589)"/>
      <path id="Path_624" data-name="Path 624" d="M-27.9,703.159-54,718.228-27.9,733.3Z" transform="translate(1940.782 357.34)"/>
      <path id="Path_625" data-name="Path 625" d="M-28.663,728.727l-19.023-10.991v21.972Z" transform="translate(1922.538 386.668)"/>
      <path id="Path_626" data-name="Path 626" d="M-20.854,746.242l-8.27,4.778,8.27,4.778Z" transform="translate(1858.822 444.019)"/>
      <path id="Path_627" data-name="Path 627" d="M-16.972,762.832l-4.626-2.669V765.5Z" transform="translate(1832.273 472.028)"/>
      <path id="Path_628" data-name="Path 628" d="M-5.3,787.49l-.011.006.011.011Z" transform="translate(1771.537 527.007)"/>
      <path id="Path_629" data-name="Path 629" d="M25.63,470.373l-.52-.3v.6Z" transform="translate(1648.988 -111.607)"/>
      <path id="Path_630" data-name="Path 630" d="M17.924,483.326l-.374.211.374.216Z" transform="translate(1679.467 -84.949)"/>
      <path id="Path_631" data-name="Path 631" d="M3.826,510.58,1.9,509.469v2.219Z" transform="translate(1740.704 -32.349)"/>
      <path id="Path_632" data-name="Path 632" d="M-1.4,522.218l-4.392,2.535,4.392,2.541Z" transform="translate(1769.102 -6.701)"/>
      <path id="Path_633" data-name="Path 633" d="M-11.193,554.15l-12.05-6.956v13.912Z" transform="translate(1831.447 43.55)"/>
      <path id="Path_634" data-name="Path 634" d="M-12.564,559.353-30.156,569.51l17.592,10.157Z" transform="translate(1853.639 68.012)"/>
      <path id="Path_635" data-name="Path 635" d="M-18.1,601.74l-32.585-18.819v37.625Z" transform="translate(1921.019 115.43)"/>
      <path id="Path_636" data-name="Path 636" d="M-16.115,594.847l-39.348,22.72,39.348,22.72Z" transform="translate(1933.417 139.424)"/>
      <path id="Path_637" data-name="Path 637" d="M-39.178,732.035l-13.416,7.745,13.416,7.744Z" transform="translate(1947.835 415.437)"/>
      <path id="Path_638" data-name="Path 638" d="M-36.79,751.145l-8.586-4.965V756.1Z" transform="translate(1923.709 443.894)"/>
      <path id="Path_639" data-name="Path 639" d="M-26.682,773.941l-1.717.993,1.717.992Z" transform="translate(1862.466 499.747)"/>
      <path id="Path_640" data-name="Path 640" d="M-5.288,496.613l-.023.012.023.017Z" transform="translate(1771.533 -58.216)"/>
      <path id="Path_641" data-name="Path 641" d="M-17.579,524.542l-3.849-2.219v4.45Z" transform="translate(1832.365 -6.49)"/>
      <path id="Path_642" data-name="Path 642" d="M-21.907,534.923l-7.085,4.095,7.085,4.089Z" transform="translate(1859.479 18.861)"/>
      <path id="Path_643" data-name="Path 643" d="M-29.7,569.548l-17.7-10.215V579.77Z" transform="translate(1922.689 67.973)"/>
      <path id="Path_644" data-name="Path 644" d="M-28.5,571.075l-25.418,14.677L-28.5,600.424Z" transform="translate(1941.162 91.596)"/>
      <path id="Path_645" data-name="Path 645" d="M-46.689,760.1l-4.97,2.874,4.97,2.868Z" transform="translate(1952.531 471.891)"/>
      <path id="Path_646" data-name="Path 646" d="M-41.992,775l-1.9-1.1v2.2Z" transform="translate(1924.455 499.677)"/>
      <path id="Path_647" data-name="Path 647" d="M-27.622,509.714l-.66.374.66.385Z" transform="translate(1863.056 -31.858)"/>
      <path id="Path_648" data-name="Path 648" d="M-38.155,538.916l-6.833-3.943v7.885Z" transform="translate(1923.906 18.963)"/>
      <path id="Path_649" data-name="Path 649" d="M-40.851,547.291l-11.535,6.665,11.535,6.664Z" transform="translate(1948.883 43.745)"/>
      <path id="Path_650" data-name="Path 650" d="M-43.135,510l-.438-.246v.5Z" transform="translate(1924.622 -31.772)"/>
      <path id="Path_651" data-name="Path 651" d="M-48.3,522.454l-3.16,1.822,3.16,1.828Z" transform="translate(1953.54 -6.225)"/>
    </g>
  </g>
</svg>
