<svg xmlns="http://www.w3.org/2000/svg" width="22.127" height="22.455" viewBox="0 0 22.127 22.455">
  <g id="Group_26" data-name="Group 26" transform="translate(-685.5 -3077.38)">
    <path id="_336" data-name="336" d="M470.671,525.154H452.485a.633.633,0,0,1-.633-.633V506.334a.633.633,0,0,1,.633-.633h11.271a.633.633,0,0,1,0,1.267H453.119v16.919h16.919V511.834a.633.633,0,1,1,1.267,0V524.52A.633.633,0,0,1,470.671,525.154Z" transform="translate(233.648 2574.681)" fill="#82a0a9"/>
    <path id="_337" data-name="337" d="M690.619,332.6a1.885,1.885,0,0,0-.471-.892,1.044,1.044,0,0,0-.676-.3,3.684,3.684,0,0,0-2.318.966,28.176,28.176,0,0,0-5.623,5.5,29.264,29.264,0,0,0-3.966,6.759q-.523-.656-1.048-1.311a29.28,29.28,0,0,0-2.275-2.732.983.983,0,0,0-1.535.327c-1.126,1.875.685,3.7,1.693,5.135q1.217,1.736,2.432,3.475a1.241,1.241,0,0,0,2.307-.341,28.525,28.525,0,0,1,4.431-7.86,24.672,24.672,0,0,1,2.983-3.212c.923-.841,1.927-1.587,2.852-2.426A3.382,3.382,0,0,0,690.619,332.6Z" transform="translate(16.948 2745.983)" fill="#42a5f5"/>
  </g>
</svg>
