<svg xmlns="http://www.w3.org/2000/svg" width="32.537" height="33.54" viewBox="0 0 32.537 33.54">
  <g id="Group_16" data-name="Group 16" transform="translate(-69.207 -317.488)">
    <g id="Group_15" data-name="Group 15" transform="translate(69.207 317.488)">
      <path id="Path_693" data-name="Path 693" d="M96.8,321.672l-.181-.026a4.342,4.342,0,0,0-.371.995,13.781,13.781,0,1,1-12.178,4.082,19.49,19.49,0,0,1,7.353-4.791,14.262,14.262,0,0,0-5.726,5.22c7.8,2.839,9.548-4.846,9.945-6.126A3.571,3.571,0,0,1,98,318.472s-13.382-4.956-14.546,7.374A14.8,14.8,0,1,0,96.8,321.672Z" transform="translate(-76.289 -317.488)" fill="#82a0a9"/>
      <path id="Path_694" data-name="Path 694" d="M75.06,335.586a7.051,7.051,0,0,0-3.469-3.863,6.339,6.339,0,0,1,4.222,3.368,6.624,6.624,0,0,0-1.859-3.408c-1.528-1.307-4.747-.937-4.747-.937,1.414,1.243.8,3.1,2.486,4.249A4.957,4.957,0,0,0,75.06,335.586Z" transform="translate(-69.207 -326.846)" fill="#82a0a9"/>
    </g>
    <path id="Path_695" data-name="Path 695" d="M114.2,374.3l8.221-12.425-5.962,0,3.291-6.383h-5.529L110.5,365.14h6.418Z" transform="translate(-29.251 -26.925)" fill="#82a0a9"/>
  </g>
</svg>
