<svg xmlns="http://www.w3.org/2000/svg" width="69.251" height="70.915" viewBox="0 0 69.251 70.915">
  <g id="Group_5" data-name="Group 5" transform="translate(-421.684 -476.144)">
    <path id="Path_654" data-name="Path 654" d="M458.333,503.988a10.7,10.7,0,1,0-10.7-10.7A10.7,10.7,0,0,0,458.333,503.988Zm3.129-19.531a6.965,6.965,0,1,1-6.967,6.963A6.964,6.964,0,0,1,461.462,484.457Z" transform="translate(21.902 5.441)" fill="#1976d2"/>
    <path id="Path_655" data-name="Path 655" d="M432.4,496.517a10.7,10.7,0,0,0-10.5,8.65,6.969,6.969,0,1,1-.166,2.753,10.694,10.694,0,1,0,10.664-11.4Z" transform="translate(0.044 17.194)" fill="#1976d2"/>
    <path id="Path_656" data-name="Path 656" d="M458.141,496.517a10.7,10.7,0,1,0,5.11,20.1,7.013,7.013,0,1,1,3.852-3.568,10.691,10.691,0,0,0-8.962-16.535Z" transform="translate(21.738 17.194)" fill="#1976d2"/>
    <path id="Path_657" data-name="Path 657" d="M445.085,503a10.7,10.7,0,1,0,10.7,10.7A10.7,10.7,0,0,0,445.085,503Zm-.155,21.229a6.965,6.965,0,1,1,6.965-6.961A6.967,6.967,0,0,1,444.93,524.225Z" transform="translate(10.72 22.662)" fill="#1976d2"/>
    <path id="Path_658" data-name="Path 658" d="M449.117,476.959a6.954,6.954,0,1,1-6.5-.494,10.689,10.689,0,1,0,6.5.494Z" transform="translate(10.72 0.271)" fill="#1976d2"/>
    <path id="Path_659" data-name="Path 659" d="M432.8,482.591a10.7,10.7,0,1,0,10.7,10.7A10.7,10.7,0,0,0,432.8,482.591Zm-2.705,15.36a6.966,6.966,0,1,1,6.965-6.968A6.968,6.968,0,0,1,430.1,497.951Z" transform="translate(0.354 5.441)" fill="#1976d2"/>
    <path id="Path_660" data-name="Path 660" d="M456.015,509.052a6.966,6.966,0,0,0,3.852-3.568A10.756,10.756,0,0,1,456.015,509.052Z" transform="translate(28.974 24.762)" fill="#1976d2"/>
    <path id="Path_661" data-name="Path 661" d="M421.946,501.208a5.693,5.693,0,0,0-.166,2.753c-.017-.234-.035-.466-.035-.7A10.738,10.738,0,0,1,421.946,501.208Z" transform="translate(0 21.153)" fill="#1976d2"/>
    <path id="Path_662" data-name="Path 662" d="M445.349,477.23a6.872,6.872,0,0,0-6.5-.494,10.565,10.565,0,0,1,6.5.494Z" transform="translate(14.488 0)" fill="#1976d2"/>
  </g>
</svg>
