<svg xmlns="http://www.w3.org/2000/svg" xmlns:xlink="http://www.w3.org/1999/xlink" width="88.146" height="94.983" viewBox="0 0 88.146 94.983">
  <defs>
    <filter id="Union_2" x="0" y="0" width="88.146" height="94.983" filterUnits="userSpaceOnUse">
      <feOffset dy="3" input="SourceAlpha"/>
      <feGaussianBlur stdDeviation="3" result="blur"/>
      <feFlood/>
      <feComposite operator="in" in2="blur"/>
      <feComposite in="SourceGraphic"/>
    </filter>
  </defs>
  <g transform="matrix(1, 0, 0, 1, 0, 0)" filter="url(#Union_2)">
    <path id="Union_2-2" data-name="Union 2" d="M29.84,71.155a4.833,4.833,0,1,1,4.835,4.828A4.833,4.833,0,0,1,29.84,71.155ZM27.127,54.59a7.424,7.424,0,1,1,7.423,7.424A7.424,7.424,0,0,1,27.127,54.59Zm32.354.959a4.833,4.833,0,1,1,4.833,4.83A4.835,4.835,0,0,1,59.481,55.55ZM0,54.758A4.833,4.833,0,1,1,4.837,59.59,4.836,4.836,0,0,1,0,54.758ZM43.83,46.3a7.424,7.424,0,1,1,7.423,7.424A7.423,7.423,0,0,1,43.83,46.3Zm-32.912,0a7.424,7.424,0,1,1,7.424,7.424A7.424,7.424,0,0,1,10.918,46.3Zm33.16-17.816A7.424,7.424,0,1,1,51.5,35.907,7.424,7.424,0,0,1,44.077,28.484Zm-32.665,0a7.424,7.424,0,1,1,7.424,7.423A7.424,7.424,0,0,1,11.413,28.484Zm15.714-8.042a7.424,7.424,0,1,1,7.423,7.423A7.424,7.424,0,0,1,27.127,20.442ZM.5,20.646a4.833,4.833,0,1,1,4.837,4.838A4.831,4.831,0,0,1,.5,20.646Zm58.216-1.857a4.833,4.833,0,1,1,4.835,4.836A4.834,4.834,0,0,1,58.711,18.789ZM30.168,4.829A4.832,4.832,0,1,1,35,9.665,4.83,4.83,0,0,1,30.168,4.829Z" transform="translate(9.5 6.5)" fill="#42a5f5" stroke="rgba(0,0,0,0)" stroke-miterlimit="10" stroke-width="1"/>
  </g>
</svg>
