<svg xmlns="http://www.w3.org/2000/svg" width="59.61" height="67.357" viewBox="0 0 59.61 67.357">
  <g id="Group_11" data-name="Group 11" transform="translate(-734.134 -28.82)">
    <path id="Path_668" data-name="Path 668" d="M758.15,28.82l12.8,7.386-12.8,7.386-12.8-7.386Z" transform="translate(5.854 0)" fill="#1976d2" fill-rule="evenodd"/>
    <path id="Path_669" data-name="Path 669" d="M744.434,49.775l0-14.775,12.8,7.389,0,14.778Z" transform="translate(5.374 3.225)" fill="#1976d2" fill-rule="evenodd"/>
    <path id="Path_670" data-name="Path 670" d="M767.462,49.807l0-14.778-12.8,7.389,0,14.778Z" transform="translate(10.713 3.24)" fill="#1976d2" fill-rule="evenodd"/>
    <path id="Path_671" data-name="Path 671" d="M747.851,45.894l12.8,7.386-12.8,7.386-12.8-7.386Z" transform="translate(0.48 8.909)" fill="#1976d2" fill-rule="evenodd"/>
    <path id="Path_672" data-name="Path 672" d="M734.135,66.849V52.074l12.8,7.389,0,14.778Z" transform="translate(0 12.134)" fill="#1976d2" fill-rule="evenodd"/>
    <path id="Path_673" data-name="Path 673" d="M757.163,66.879l0-14.775-12.8,7.392V74.271Z" transform="translate(5.34 12.149)" fill="#1976d2" fill-rule="evenodd"/>
    <path id="Path_674" data-name="Path 674" d="M768.314,46.166l12.8,7.386-12.8,7.386-12.8-7.386Z" transform="translate(11.157 9.051)" fill="#1976d2" fill-rule="evenodd"/>
    <path id="Path_675" data-name="Path 675" d="M754.6,67.122l0-14.778,12.8,7.392,0,14.778Z" transform="translate(10.677 12.275)" fill="#1976d2" fill-rule="evenodd"/>
    <path id="Path_676" data-name="Path 676" d="M777.625,67.15l0-14.775-12.8,7.389,0,14.778Z" transform="translate(16.017 12.291)" fill="#1976d2" fill-rule="evenodd"/>
    <path id="Path_677" data-name="Path 677" d="M764.9,49.913V35.135l12.794,7.392,0,14.775Z" transform="translate(16.051 3.295)" fill="#1976d2" fill-rule="evenodd"/>
    <path id="Path_678" data-name="Path 678" d="M747.136,49.942l0-14.778-12.8,7.392,0,14.775Z" transform="translate(0.107 3.31)" fill="#1976d2" fill-rule="evenodd"/>
    <path id="Path_679" data-name="Path 679" d="M758.15,63.375l12.8,7.386-12.8,7.386-12.8-7.386Z" transform="translate(5.854 18.031)" fill="#1976d2" fill-rule="evenodd"/>
  </g>
</svg>
