<svg xmlns="http://www.w3.org/2000/svg" width="331.306" height="37.437" viewBox="0 0 331.306 37.437">
  <g id="Group_1" data-name="Group 1" transform="translate(-753.335 -84.175)">
    <path id="Path_1" data-name="Path 1" d="M711.462,664.349l7.253-26.508h9.8l-12.253,36.412h-9.6l-12.154-36.412h9.728Z" transform="translate(58.828 -553.141)" fill="#fff"/>
    <path id="Path_2" data-name="Path 2" d="M783.088,674.252h-8.752V637.841h8.752Z" transform="translate(28.808 -553.141)" fill="#fff"/>
    <path id="Path_3" data-name="Path 3" d="M824.737,667.5h17.4v6.752H813.784v-4.627l17.355-25.007H813.683v-6.777h28.284v4.5Z" transform="translate(14.011 -553.141)" fill="#fff"/>
    <path id="Path_4" data-name="Path 4" d="M977.972,661.373H973.22v12.88h-8.777V637.841h14.329q6.476,0,10.128,2.873a9.737,9.737,0,0,1,3.651,8.119,11.822,11.822,0,0,1-1.538,6.3,10.913,10.913,0,0,1-4.814,4.047l7.6,14.7v.376h-9.4Zm-4.752-6.752h5.552a4.984,4.984,0,0,0,3.764-1.316,5.086,5.086,0,0,0,1.264-3.673,5.149,5.149,0,0,0-1.276-3.7,4.938,4.938,0,0,0-3.751-1.341H973.22Z" transform="translate(-42.683 -553.141)" fill="#fff"/>
    <path id="Path_5" data-name="Path 5" d="M1067.251,644.618h-10.928v29.634h-8.778V644.618h-10.728v-6.777h30.434Z" transform="translate(-69.899 -553.141)" fill="#42a5f5"/>
    <path id="Path_6" data-name="Path 6" d="M1133.5,658.8h-13.8v8.7H1136v6.752h-25.083V637.841h25.133v6.777h-16.355V652.3h13.8Z" transform="translate(-97.764 -553.141)" fill="#42a5f5"/>
    <path id="Path_7" data-name="Path 7" d="M1207,661.608a13.284,13.284,0,0,1-2.051,6.714,12.373,12.373,0,0,1-5.263,4.514,17.914,17.914,0,0,1-7.741,1.6q-7.177,0-11.3-4.677t-4.126-13.205v-1.8a22.031,22.031,0,0,1,1.862-9.365,14.124,14.124,0,0,1,5.364-6.2,14.972,14.972,0,0,1,8.1-2.187q6.627,0,10.654,3.488a13.792,13.792,0,0,1,4.577,9.616h-8.753q-.1-3.326-1.675-4.777a6.9,6.9,0,0,0-4.8-1.45,5.244,5.244,0,0,0-4.8,2.45q-1.524,2.451-1.6,7.828v2.576q0,5.827,1.463,8.327t5.038,2.5a6.741,6.741,0,0,0,4.627-1.426,6.055,6.055,0,0,0,1.7-4.526Z" transform="translate(-122.433 -552.825)" fill="#42a5f5"/>
    <path id="Path_8" data-name="Path 8" d="M901.67,647.743l-7.253,26.509h-9.8l12.254-36.412h9.6l12.154,36.412H908.9Z" transform="translate(-12.663 -553.141)" fill="#fff"/>
  </g>
</svg>
