<svg xmlns="http://www.w3.org/2000/svg" width="72.576" height="74.088" viewBox="0 0 72.576 74.088">
  <g id="Group_12" data-name="Group 12" transform="translate(-26 -172.745)">
    <path id="Path_680" data-name="Path 680" d="M29.024,228.689c1.512-10.584,9.072-21.168,21.168-21.168,0,1.512-.125,2.4-.125,3.913-14.364,1.39-16.506,14.231-21.042,17.255Zm30.24,18.144c-7.56-7.56-13.608-19.656-6.048-30.24l3.024,3.024c-7.56,9.072,0,18.144,3.024,27.216ZM26,195.425c10.584-6.048,21.168-3.024,30.24,4.536,0,0-4.394,1.512-4.536,1.512,0-1.512-10.111-9.4-25.7-6.048Zm63.5,39.312c-12.1,0-22.68-3.024-28.728-15.12,1.512,0,3.654.008,3.654.008,10.646,13.544,12.032,9.4,25.073,15.112ZM60.776,198.449c4.536-9.072-4.867-20.412-10.584-25.7,10.584,4.536,17.624,13.844,15.12,27.216l-4.536-1.512Zm9.072,16.632,1.259-2.638c6.678.631,10.458,3.024,27.468-9.457-6.048,9.072-16.632,16.632-28.728,12.1Zm0-12.1c9.072-6.048,11.765-13.561,10.584-25.7,6.048,9.072,1.512,22.68-9.072,28.728a22.563,22.563,0,0,0-1.512-3.024Z" transform="translate(0 0)" fill="#1976d2"/>
  </g>
</svg>
